<?xml version="1.0" standalone="no"?>
<!DOCTYPE svg PUBLIC "-//W3C//DTD SVG 20010904//EN"
 "http://www.w3.org/TR/2001/REC-SVG-20010904/DTD/svg10.dtd">
<svg version="1.0" xmlns="http://www.w3.org/2000/svg"
 width="512.000000pt" height="512.000000pt" viewBox="0 0 512.000000 512.000000"
 preserveAspectRatio="xMidYMid meet">

<g transform="translate(0.000000,512.000000) scale(0.100000,-0.100000)"
fill="#000000" stroke="none">
<path d="M2178 4784 c-230 -35 -450 -148 -622 -318 -95 -93 -147 -159 -208
-267 l-43 -76 -590 173 c-324 96 -595 174 -602 174 -11 0 -59 -137 -51 -145 2
-2 264 -81 583 -174 319 -94 585 -173 591 -175 8 -3 7 -23 -4 -73 -9 -37 -16
-69 -17 -70 -1 -2 -246 69 -545 157 -300 88 -550 160 -557 160 -11 0 -59 -137
-51 -145 3 -4 1124 -335 1132 -335 2 0 6 -57 9 -127 17 -346 152 -647 402
-899 157 -158 299 -240 511 -295 77 -20 112 -24 264 -23 205 0 307 16 481 74
142 47 252 102 433 214 76 47 139 86 141 86 1 0 76 -59 166 -131 187 -150 229
-173 301 -167 130 13 210 150 164 281 l-14 37 47 21 c61 27 89 54 117 114 32
66 31 128 -1 191 -23 44 -24 50 -9 59 70 43 114 109 114 175 0 49 -31 111 -73
146 l-36 29 55 29 c148 78 178 252 64 367 -55 55 -114 75 -200 66 -80 -9 -122
-27 -282 -124 l-138 -82 -38 67 c-22 37 -92 159 -157 272 -135 235 -195 319
-299 418 -272 259 -657 376 -1038 316z m378 -159 c117 -20 200 -48 305 -102
105 -53 172 -102 263 -191 94 -93 130 -146 315 -469 l161 -283 0 -64 c0 -197
-72 -437 -182 -606 -28 -44 -55 -65 -188 -147 -331 -206 -511 -268 -810 -280
-158 -6 -274 13 -403 67 -349 145 -612 532 -653 960 l-7 75 24 -20 c13 -11 71
-63 129 -115 241 -218 423 -329 667 -409 172 -56 297 -75 498 -75 189 0 297
13 440 55 104 31 275 99 275 110 0 7 -56 127 -64 136 -1 1 -44 -15 -96 -37
-411 -168 -873 -140 -1267 78 -116 64 -204 133 -412 321 -204 185 -190 156
-147 296 l22 70 159 87 c197 108 298 151 440 188 262 67 473 66 660 -5 267
-100 469 -349 509 -627 l7 -47 47 5 c120 13 114 10 107 57 -66 394 -343 700
-724 798 -257 66 -627 14 -941 -133 l-105 -49 60 61 c241 247 570 353 911 295z
m1661 -887 c25 -23 29 -48 13 -79 -6 -11 -73 -51 -150 -89 -139 -70 -160 -87
-160 -133 0 -43 31 -66 135 -100 88 -30 100 -36 100 -57 0 -21 -12 -27 -100
-57 -104 -34 -135 -57 -135 -100 0 -41 18 -62 80 -93 82 -42 101 -82 58 -127
-20 -21 -29 -23 -135 -23 -108 0 -115 -1 -138 -25 -46 -45 -30 -102 38 -136
59 -30 86 -57 93 -96 7 -36 -8 -63 -34 -63 -12 0 -263 192 -320 245 -12 10 -9
20 14 56 103 164 184 441 184 634 l0 60 141 85 c208 125 267 144 316 98z"/>
<path d="M1908 3990 c-129 -16 -328 -63 -328 -80 0 -19 41 -140 48 -140 4 0
50 11 102 24 393 99 714 35 952 -192 l58 -55 37 34 c20 19 44 42 55 52 10 9
18 21 18 26 0 4 -22 29 -48 53 -242 227 -539 319 -894 278z"/>
<path d="M1678 3039 l-47 -61 27 -22 c131 -109 348 -218 529 -266 91 -24 257
-50 326 -50 l47 0 0 79 0 78 -87 7 c-240 18 -498 112 -674 246 -35 27 -66 49
-69 49 -3 0 -26 -27 -52 -60z"/>
<path d="M4495 2866 c-101 -44 -125 -178 -46 -257 65 -65 157 -65 222 0 124
124 -15 327 -176 257z"/>
<path d="M4720 2387 c-49 -16 -133 -102 -148 -153 -28 -94 -8 -169 63 -239
101 -102 229 -102 330 0 98 97 101 222 8 325 -65 72 -158 97 -253 67z m135
-172 c50 -49 15 -135 -55 -135 -41 0 -80 39 -80 80 0 41 39 80 80 80 19 0 40
-9 55 -25z"/>
<path d="M3935 2226 c-101 -44 -125 -178 -46 -257 65 -65 157 -65 222 0 124
124 -15 327 -176 257z"/>
<path d="M3120 2147 c-49 -16 -133 -102 -148 -153 -28 -94 -8 -169 63 -239
101 -102 229 -102 330 0 98 97 101 222 8 325 -65 72 -158 97 -253 67z m135
-172 c50 -49 15 -135 -55 -135 -41 0 -80 39 -80 80 0 41 39 80 80 80 19 0 40
-9 55 -25z"/>
<path d="M4400 1427 c-49 -16 -133 -102 -148 -153 -28 -94 -8 -169 63 -239
101 -102 229 -102 330 0 98 97 101 222 8 325 -65 72 -158 97 -253 67z m135
-172 c50 -49 15 -135 -55 -135 -41 0 -80 39 -80 80 0 41 39 80 80 80 19 0 40
-9 55 -25z"/>
<path d="M2655 1346 c-101 -44 -125 -178 -46 -257 65 -65 157 -65 222 0 124
124 -15 327 -176 257z"/>
<path d="M3360 1347 c-49 -16 -133 -102 -148 -153 -28 -94 -8 -169 63 -239
101 -102 229 -102 330 0 98 97 101 222 8 325 -65 72 -158 97 -253 67z m135
-172 c50 -49 15 -135 -55 -135 -41 0 -80 39 -80 80 0 41 39 80 80 80 19 0 40
-9 55 -25z"/>
<path d="M4015 626 c-101 -44 -125 -178 -46 -257 65 -65 157 -65 222 0 124
124 -15 327 -176 257z"/>
</g>
</svg>
