<?xml version="1.0" ?><svg enable-background="new 0 0 64 64" id="Filled_Outline_1_" version="1.1" viewBox="0 0 64 64" xml:space="preserve" xmlns="http://www.w3.org/2000/svg" xmlns:xlink="http://www.w3.org/1999/xlink"><title/><desc/><g><g><path d="M32,9h2.107c5.187,0,9.669,3.623,10.756,8.695c0,0,0.91,3.968,1.137,5.305c1.346,7.949,9,12,9,23    c0,8-6,15-18,15h-5V9z" fill="#009245"/><path d="M26,7c3,0,6,1,6,2c0-4-2.684-6-6-6V7z" fill="#22B573"/><path d="M42,3h-4c-3.314,0-6,2.686-6,6v0h4C39.314,9,42,6.314,42,3L42,3z" fill="#009245"/><ellipse cx="39" cy="6" fill="#39B54A" rx="3" ry="1.5" transform="matrix(0.7071 -0.7071 0.7071 0.7071 7.1802 29.3345)"/><path d="M45,21c0-1.657-2-5-4-5c-1.657,0-2,1.343-2,3s1,5,3,5C43.657,24,45,23,45,21z" fill="#39B54A"/><path d="M55,46c0,8-6,15-18,15h-5c10,0,15-7,15-15c0-2.71-0.36-4.98-0.92-7c-0.03-0.1-0.06-0.2-0.09-0.3    c0-2.21-0.47-4.96,1.01-5.7c2-1,4.82,2,6.82,6C54.54,41.02,55,43.3,55,46z" fill="#006837"/><path d="M17,46c0-11,6-15,7-23l1.151-8.06C25.638,11.532,28.557,9,32,9h0c3.443,0,6.362,2.532,6.849,5.94L40,23    c1,8,7,12,7,23c0,8-5,15-15,15C23,61,17,54,17,46z" fill="#F2E880"/><path d="M47,46c0,8-5,15-15,15c-7.98,0-13.61-5.51-14.77-12.34C20.16,52.51,24.79,55,30,55c8.84,0,16-7.16,16-16    c0-0.1,0-0.2-0.01-0.3c0.029,0.099,0.058,0.199,0.086,0.3C46.637,41.016,47,43.295,47,46z" fill="#ADCC39"/><path d="M32,54.88V61c-7.98,0-13.61-5.51-14.77-12.34C20.16,52.51,24.79,55,30,55C30.68,55,31.34,54.96,32,54.88z" fill="#ADCC39"/><path d="M41,46c0-4.971-4.029-13-9-13s-9,8.029-9,13s4.029,9,9,9S41,50.971,41,46z" fill="#8C6239"/><path d="M37,38c0-3-3.343-5-5-5c-1.657,0,0,2-1,5c-0.699,2.096,1.343,4,3,4S37,40.209,37,38z" fill="#A67C52"/><path d="M41,46c0,4.97-4.03,9-9,9s-9-4.03-9-9c0-0.81,0.11-1.71,0.31-2.64C24.35,47.19,27.85,50,32,50    s7.65-2.81,8.69-6.64C40.89,44.29,41,45.19,41,46z" fill="#754C24"/></g><path d="M50.86,31.246c-1.718-2.707-3.341-5.263-3.874-8.413c-0.229-1.351-1.11-5.198-1.145-5.347   c-0.795-3.709-3.303-6.725-6.576-8.299C41.484,8.011,43,5.681,43,3c0-0.552-0.448-1-1-1h-4c-2.492,0-4.678,1.313-5.919,3.28   C30.93,3.235,28.769,2,26,2c-0.552,0-1,0.448-1,1v4c0,0.552,0.448,1,1,1c1.308,0,2.496,0.2,3.399,0.452   c-2.721,0.959-4.812,3.368-5.237,6.346l-1.154,8.078c-0.403,3.228-1.683,5.811-3.038,8.546C18.109,35.178,16,39.435,16,46   c0,9.122,6.878,16,16,16h5c13.125,0,19-8.036,19-16C56,39.344,53.269,35.042,50.86,31.246z M38,4h2.899C40.435,6.279,38.415,8,36,8   h-2.899C33.565,5.721,35.585,4,38,4z M27,4.069c1.747,0.252,2.991,1.184,3.592,2.656C29.512,6.342,28.21,6.116,27,6.034V4.069z    M40.876,59.719C45.737,56.77,48,51.374,48,46c0-1.818-0.155-3.515-0.473-5.187l-1.965,0.374C45.857,42.734,46,44.309,46,46   c0,6.458-3.667,14-14,14c-7.981,0-14-6.019-14-14c0-6.097,1.912-9.958,3.762-13.69c1.432-2.891,2.785-5.622,3.228-9.168   l1.151-8.061C26.555,12.184,29.074,10,32,10s5.445,2.184,5.859,5.081l1.149,8.043c0.445,3.564,1.798,6.294,3.231,9.186   c0.493,0.996,1.003,2.026,1.473,3.093l1.831-0.806c-0.488-1.108-1.008-2.159-1.512-3.175c-1.355-2.735-2.635-5.319-3.041-8.564   l-1.151-8.061c-0.215-1.509-0.862-2.87-1.797-3.974c2.905,1.258,5.154,3.858,5.847,7.095c0.009,0.04,0.906,3.955,1.125,5.248   c0.601,3.547,2.328,6.27,4.157,9.151C51.545,36.058,54,39.925,54,46C54,51.74,50.468,58.322,40.876,59.719z M46.374,36.657   c0.252,0.691,0.477,1.389,0.667,2.075l-1.927,0.536c-0.179-0.645-0.382-1.274-0.619-1.925L46.374,36.657z M32,32   c-5.706,0-10,8.493-10,14c0,5.514,4.486,10,10,10s10-4.486,10-10C42,40.493,37.706,32,32,32z M36.226,52.78   C36.715,51.696,37,50.404,37,49h-2c0,2.71-1.374,5-3,5s-3-2.29-3-5h-2c0,1.404,0.285,2.696,0.774,3.78   C25.512,51.365,24,48.859,24,46c0-4.521,3.739-12,8-12s8,7.479,8,12C40,48.859,38.488,51.365,36.226,52.78z" fill="#28284B"/></g></svg>