<?xml version="1.0" ?><svg viewBox="0 0 64 64" xmlns="http://www.w3.org/2000/svg"><g data-name="Layer 3" id="Layer_3"><path d="M32,63h0A19.812,19.812,0,0,1,12.242,44.08c-.323-6.72-.323-17.44,0-24.16A19.812,19.812,0,0,1,32,1h0A19.812,19.812,0,0,1,51.758,19.92c.323,6.72.323,17.44,0,24.16A19.812,19.812,0,0,1,32,63Z" style="fill:#e8859b"/><rect height="33" rx="13" style="fill:#f7d1c6" width="26" x="19" y="5"/><path d="M22,25V18A13,13,0,0,1,33.5,5.093,12.95,12.95,0,0,0,19,18v7A12.95,12.95,0,0,0,33.5,37.907,13,13,0,0,1,22,25Z" style="fill:#f4b19f"/><path d="M44.734,17.9A169.278,169.278,0,0,0,33.643,32.1a2,2,0,0,1-3.286,0A169.278,169.278,0,0,0,19.266,17.9L19,18v7A12.993,12.993,0,0,0,29.835,37.805h0c.343.058.688.108,1.04.138.37.036.745.057,1.125.057s.755-.021,1.125-.057c.352-.03.7-.08,1.04-.138h0A12.993,12.993,0,0,0,45,25V18Z" style="fill:#f4b19f"/><path d="M27,25l.03.119A5.123,5.123,0,0,0,32,29h0a5.123,5.123,0,0,0,4.97-3.881L37,25Z" style="fill:#f97878"/><path d="M51.145,15.893a19.981,19.981,0,0,1,.613,4.027c.323,6.72.323,17.44,0,24.16A19.812,19.812,0,0,1,32,63a19.613,19.613,0,0,1-11.341-3.609A163.5,163.5,0,0,1,51.145,15.893Z" style="fill:#f2a7b1"/><path d="M11.674,1.415c-.237.17-.46.354-.677.545a8.586,8.586,0,0,0-.681-.558,2.135,2.135,0,0,0-2.712.18,1.925,1.925,0,0,0-.183,2.6A10.51,10.51,0,0,0,10.994,7,11.16,11.16,0,0,0,14.58,4.186a1.916,1.916,0,0,0-.188-2.6A2.144,2.144,0,0,0,11.674,1.415Z" style="fill:#f97878"/><path d="M53.674,3.415c-.237.17-.46.354-.677.545a8.586,8.586,0,0,0-.681-.558,2.135,2.135,0,0,0-2.712.18,1.925,1.925,0,0,0-.183,2.6A10.51,10.51,0,0,0,52.994,9,11.16,11.16,0,0,0,56.58,6.186a1.916,1.916,0,0,0-.188-2.6A2.144,2.144,0,0,0,53.674,3.415Z" style="fill:#f97878"/><path d="M9.421,4.184a1.925,1.925,0,0,1,.183-2.6,2.06,2.06,0,0,1,.467-.327A2.134,2.134,0,0,0,7.6,1.582a1.925,1.925,0,0,0-.183,2.6A10.51,10.51,0,0,0,10.994,7c.344-.181.671-.372.987-.571A9.848,9.848,0,0,1,9.421,4.184Z" style="fill:#ed5d5d"/><path d="M51.421,6.184a1.925,1.925,0,0,1,.183-2.6,2.06,2.06,0,0,1,.467-.327,2.134,2.134,0,0,0-2.467.327,1.925,1.925,0,0,0-.183,2.6A10.51,10.51,0,0,0,52.994,9c.344-.181.671-.372.987-.571A9.848,9.848,0,0,1,51.421,6.184Z" style="fill:#ed5d5d"/><path d="M45.493,57.651A155.327,155.327,0,0,0,33.5,37.3,155.327,155.327,0,0,0,21.507,57.651,19.639,19.639,0,0,0,33.5,62.926,19.639,19.639,0,0,0,45.493,57.651Z" style="fill:#e8859b"/><path d="M12.855,15.893a19.981,19.981,0,0,0-.613,4.027c-.323,6.72-.323,17.44,0,24.16A19.812,19.812,0,0,0,32,63a19.613,19.613,0,0,0,11.341-3.609A163.5,163.5,0,0,0,12.855,15.893Z" style="fill:#f2a7b1"/><path d="M28,19a1,1,0,0,0,.707-1.707,3.484,3.484,0,0,0-5.414,0,1,1,0,0,0,1.414,1.414,1.536,1.536,0,0,1,2.586,0A1,1,0,0,0,28,19Z" style="fill:#f97878"/><path d="M40.707,17.293a3.484,3.484,0,0,0-5.414,0,1,1,0,0,0,1.414,1.414,1.536,1.536,0,0,1,2.586,0,1,1,0,0,0,1.414-1.414Z" style="fill:#f97878"/></g></svg>