<?xml version="1.0" ?><!DOCTYPE svg  PUBLIC '-//W3C//DTD SVG 1.1//EN'  'http://www.w3.org/Graphics/SVG/1.1/DTD/svg11.dtd'><svg enable-background="new 0 0 128 128" height="128px" id="Layer_1" version="1.1" viewBox="0 0 128 128" width="128px" xml:space="preserve" xmlns="http://www.w3.org/2000/svg" xmlns:xlink="http://www.w3.org/1999/xlink"><g><path d="M126.941,43.844c-1.353-4.614-6.394-8.409-8.756-12.512c-3.906-6.779-5.539-13.5-2.847-20.979   c2.454-6.813-1.771-11.269-7.354-9.293c-6.336,2.239-5.477,6.642-5.1,12.301c0.273,4.138,1.869,7.88,2.791,11.888   c1.135,4.933-2.599,8.883-4.977,13.021c-3.301,5.737-6.204,11.681-9.609,17.362c-9.84,16.433-22.443,29.56-40.882,35.826   c-8.403,2.858-17.071,4.326-25.907,4.828c-3.404,0.188-6.535,1.176-9.853,1.823c-2.457,0.479-5.285,1.244-7.792,1.304   c-0.021,0-0.04,0.006-0.061,0.008c-0.158-0.006-0.329-0.004-0.518,0.021c-2.878,0.339-5.293,0.13-5.771,2.697   c-0.557,2.989-0.656,6.313,2.274,8.644c3.255,2.584,7.376,5.963,10.807,8.396c4.298,3.054,9.151,5.597,14.294,6.814   c20.992,4.979,43.598-3.886,61.045-15.078C105.991,99.841,122.655,80.8,127.1,60.286C128.221,55.115,128.432,48.938,126.941,43.844   z" fill="#91C828"/></g><g><path d="M2.584,110.779c3.255,2.584,7.376,5.963,10.807,8.396c4.298,3.055,9.151,5.598,14.294,6.814   c20.992,4.979,43.597-3.887,61.045-15.078c17.263-11.074,33.928-30.115,38.371-50.629c1.118-5.17,1.33-11.347-0.16-16.441   c-1.352-4.614-6.394-8.409-8.756-12.512c-3.905-6.779-5.539-13.5-2.847-20.979c2.065-5.732-0.597-9.795-4.819-9.764   c-0.455,2.089-0.438,3.235-0.68,7.212c-0.24,3.977,0.584,14.678,2.299,21.695c1.047,4.29,2.891,10.369,0.95,18.052   c-1.819,7.215-3.67,16.453-15.022,30.765C85.68,93.918,60.75,107.637,52.615,108.587c-11.481,1.343-20.384,3.263-34.246,0.544   c-6.46-1.267-11.91-4.236-18.042-6.283c-0.044-0.016-0.088-0.029-0.133-0.044C-0.245,105.612-0.131,108.623,2.584,110.779z" fill="#7DB423"/></g></svg>