<?xml version="1.0" ?><svg data-name="Layer 1" id="Layer_1" viewBox="0 0 169.46 290" xmlns="http://www.w3.org/2000/svg"><defs><style>.cls-1{fill:#e7c34b;}.cls-2{fill:#f2f4e9;}.cls-3{fill:#a9c927;}.cls-4{fill:#f4f1e4;}.cls-5{fill:#c5d541;}.cls-6{fill:#efecdf;}.cls-7{fill:#e5e1d3;}.cls-8{fill:#e8eadf;}.cls-9{fill:#eae7da;}.cls-10{fill:#fffffd;}</style></defs><title/><path class="cls-1" d="M150.52,272.84h-5.73c-14,0-14.89,12.05-15.77,13.79,1.06,1.95,3.91,4.49,4.88,5.54a8.27,8.27,0,0,0,5.95,2.64l2.29,0c7.45.1,22.95.32,24.87-.06s6-3.73,8.46-7.9C175.26,285.5,171.77,272.84,150.52,272.84Z" transform="translate(-65.27 -5)"/><path class="cls-2" d="M136.85,205.6c.86,1.38.39,9.14,0,17-.25,4.94.34,10.41-1.1,15.43-1.69,5.89-4,9.82-3.75,15.43.44,8.75,5.53,17,6.22,20.47,0,.13,3.12,3.71,3.09,3.83a33.06,33.06,0,0,1,8.68-1.1h.2a67,67,0,0,1,8.7.52s2.21.59,2.22.58c4-7.84,29.34-50.1,19.62-63.52a67.54,67.54,0,0,1-12.57-32.87c-.31-3.59-.75-11.61-1.32-13.47-1-3.11-11.83-12.38-15.19-17.18l-1.12,20.95c.06.39-.79,7.8-6,18.52C140.65,198.31,138.19,204.32,136.85,205.6Z" transform="translate(-65.27 -5)"/><path class="cls-3" d="M123,49.13c-.06-3.12.91-7.77.9-10.65,0-2.7,8.17-3.17,8.11-5.51-.2-8.88-5-15.22,1.35-18.3a110,110,0,0,0-13.91-2c-11.38,0-16.73,7.32-19.9,11.67A24.75,24.75,0,0,1,97.43,27c-3.43,3.47-6.14,10-6.9,16.7a2,2,0,0,0,0,.37v.2a.88.88,0,0,1-.59.87c-4,1.41-11.17,4.82-14.1,11.78C74,61.35,74.5,64.85,75,68.24c.6,4.09,1.21,8.32-2.4,13.73L71.51,83.6c-5.77,8.58-9.25,13.77-2.66,22.25,3.73,4.8,4.24,11.09,4.74,17.17s1.47,20.85,10.35,26.14C90.78,95.69,105.13,57.61,123,49.13Z" transform="translate(-65.27 -5)"/><path class="cls-3" d="M149.28,194A54.26,54.26,0,0,0,154.53,174l-.62-27c-3.43-4.91-2.94-4.08-5.8-10-5.91-12.18,3.27-31,4.74-35.06l-13.44-7.5c-9.56-7.48-16.84-25.29-18.87-37.26-1.67,2.2-10.78,5.18-13.31,8.6s-13.07,34.83-14,44.76l3,52.88-3,16.13,4.85,15.87,2.2,51.81,37.89,31.65,3.17-1.17c-1-5.4-4.8-17.25-5.17-24.55-.3-5.91,1.5-12.14,3.23-18.17,1.42-4.93,2.89-10,3.12-14.76.49-9.76-1.79-12-1.81-12a.91.91,0,0,1-.29-.71.89.89,0,0,1,.36-.67S144.38,204.13,149.28,194Z" transform="translate(-65.27 -5)"/><path class="cls-4" d="M139.41,278.33A.87.87,0,0,1,139,278c-3.45-4.63-14.91-20.91-17.66-35.87,0-.62.06-10.28,5.62-17-3.73,1.77-8.49,4.63-9.69,8.08a.88.88,0,0,1-.82.59.91.91,0,0,1-.84-.57c-.18-.49-4.41-12-2.78-19s6.26-16.91,13.8-20.72c4.62-2.34,6.12-5.5,6.61-7.32-3,1.24-9.77,3.87-13.19,3.87-2.71,0-8.12,7.85-10.89,12.79a.87.87,0,0,1-.93.44.88.88,0,0,1-.71-.74l-2.65-17.66a.88.88,0,0,1,.1-.55c.35-.64,8.64-15.76,14.05-19.46,3.49-2.39,9-8.9,12.15-12.84-5,2.56-13.92,7-17.7,8.44-4.05,1.52-8.28,9.88-9.56,13a.88.88,0,0,1-1.7-.34c0-.22,0-22.15,2.13-37.92,1.65-12.35,10.52-27.77,14.68-34.47-4.62,3-12.69,8.54-15.19,12.46a.88.88,0,0,1-1.62-.55c.11-1.27,2.71-31.09,6.53-36.24C112,72.07,120,64,121,62.73c-.78-5.46.37-10.56.22-15.87C97.83,57.22,86.64,89.49,80,142.9c-2.53,33.78-4.42,68.06-4.89,78.52-1.06,23.37,8.07,53.75,37.32,62.44l.32.08c.8.18,8.17,1.79,16.24,2.69C129.87,285,132.68,280.73,139.41,278.33Z" transform="translate(-65.27 -5)"/><path class="cls-5" d="M212.51,44.44a.88.88,0,0,1-.6-.84c0-8-7.26-19.26-10.68-21.22L199,21.07c-5.22-3-16.08-9.36-24.14-12.95-9.18-4.08-23.11-4.17-27.1-.18-1.37,1.37-4.45,2.23-8.35,3.32a87,87,0,0,0-9.22,3,.89.89,0,0,1-.31.13c-6.77,2.8-12.7,7.3-12.5,16.17.05,2.36.06,4.92.07,7.63.05,19.35.12,45.85,17,59.07L146,104a.88.88,0,0,1,.38,1.07c-.09.23-8.8,23.37-2.68,36a120.87,120.87,0,0,0,10,16.24l0,.05,1.17,1.67c3.67,5.23,6.85,9.75,7.94,13.29a49,49,0,0,1,1.21,8.92c.78,9.13,2,22.92,9.78,33.74,9.68,13.37-7.25,51.66-12.66,62.73,12.72-2.57,42.7-21,42.77-60.68l2.87-23.15-2.43-21.83-.22-21.39c-.71-5.86,3.09-14.3,3.09-21.17l-1.32-23.81-4.41-29.1,1.32-3.09c10.36,23.37,17.12,19.35,20.28,43,4-3.75,7.23-11.47,6.34-19.91-1.15-10.83.68-14.87,2.61-19.14a35.35,35.35,0,0,0,2.18-5.75C236.44,63.27,232.12,51.06,212.51,44.44Z" transform="translate(-65.27 -5)"/><path class="cls-6" d="M196,50.83l-6.15-6.54L184,40.91C190,50.55,197.18,68.21,197.52,69A.88.88,0,0,1,196,70c-.07-.07-6.85-7.6-23.2-20.39-11.7-9.16-18.3-9.79-21-9.49,2.26,2,7.23,6.29,10.7,8,5.1,2.55,20.88,19.6,28.52,28.27,8.57,9.73,6.23,21.74,6.13,22.24a.88.88,0,0,1-1.56.37c-.09-.11-8.65-10.87-18.5-12.25C168.79,85.56,156.65,72,151.65,66a47.7,47.7,0,0,0,19,26.8c18.47,13,24.22,18.7,24.22,29.23,0,9.92,2.35,27.11,2.38,27.28a.88.88,0,0,1-1.66.51c-.05-.11-5.48-11-10.68-13.23-4.24-1.82-11.41-8.05-14.91-11.23.93,3.63,3.21,10.07,8.18,13.2,7.65,4.83,18.51,23.4,19,24.19a.88.88,0,0,1,.12.44v23.1a.88.88,0,0,1-1.51.62c-2.07-2.07-7.66-6.81-11.19-9.77l12.61,26.77a.87.87,0,0,1,.08.38c0,40.88-21.66,63.38-35.1,73.4,5.81,1.2,9.06,3.21,10.86,5a8.79,8.79,0,0,1,2.46,4.16,166.17,166.17,0,0,0,18.68-2.94l.32-.09c29.22-8.69,38.35-39.06,37.29-62.43-.75-16.44-3.91-70.78-7.29-107.7A111.32,111.32,0,0,0,196,50.83Z" transform="translate(-65.27 -5)"/><path class="cls-7" d="M201.82,112.34s.59,28.81,2.65,46.45,3.82,81.13-15.58,102.89-29.1,25-29.1,25l3.82,1.79s21.46-10,33.81-31.45,12.93-58.5,12.64-78.19S201.82,112.34,201.82,112.34Z" transform="translate(-65.27 -5)"/><path class="cls-7" d="M206.52,84.71s7.06,44.76,8.82,57.95,8.82,88.45-4.41,109.61S173,282.71,173,282.71v4.16s39-14,46.59-45.39C226.22,214.22,224.16,141.73,206.52,84.71Z" transform="translate(-65.27 -5)"/><path class="cls-8" d="M159.78,189.06s1,83.29-5.25,88.68l5.25,1.17S166.84,234.63,159.78,189.06Z" transform="translate(-65.27 -5)"/><path class="cls-8" d="M148.1,210.23s-2.54,55.65,3.54,68.69h-4.07S140.54,249.33,148.1,210.23Z" transform="translate(-65.27 -5)"/><path class="cls-9" d="M94.23,123.21s-5.58,90.59,21.17,131.11c0,0,13.34,18.81,24,27.93l-4.91,1.67s-29.69-25.78-36.75-56.64S89.82,140.85,94.23,123.21Z" transform="translate(-65.27 -5)"/><path class="cls-9" d="M84.53,159.08S79.14,234.57,99.3,259.91s42.55,24,42.55,24l-2.44,4.5S105.69,284.6,93.2,257,81,203.47,84.53,159.08Z" transform="translate(-65.27 -5)"/><path class="cls-1" d="M129,286.63s2.68-9.89,23.23-10,22.49,8.48,23.23,10.21l-7.2,3.61H138.4Z" transform="translate(-65.27 -5)"/><path class="cls-10" d="M99.62,170.88A4.05,4.05,0,0,0,93.29,168l-.09.06c-3.09,2.18-7.14,2.18-9.23,4.53s-4.15,4.62-4.73,13.19-5.25,48,3.18,52.37a6.33,6.33,0,0,0,5.94,0s10.28,3.72,13.81-4.17c0,0,4.74,2.66,7.54-1.27a4,4,0,0,0,.55-3.43C108.71,223.76,103.41,203.35,99.62,170.88Z" transform="translate(-65.27 -5)"/><path class="cls-4" d="M91.53,169s.1-1.13,1.56,26,7.44,41.4,7.44,41.4,1.81-1.48,2-2.14c0,0,1.84,1.25,3.43.54-7.63-19.76-11.6-67.39-11.6-67.39S93.78,167.17,91.53,169Z" transform="translate(-65.27 -5)"/><path class="cls-4" d="M84,172.6l-.71.83s-3.47,43.66,3.46,65.36l1.63-.23,1.36,0S83.86,229.05,84,172.6Z" transform="translate(-65.27 -5)"/></svg>