<?xml version="1.0" ?><svg height="96.596001" id="svg11915" version="1.1" viewBox="0 0 29.965008 25.557691" width="113.25357" xmlns="http://www.w3.org/2000/svg" xmlns:cc="http://creativecommons.org/ns#" xmlns:dc="http://purl.org/dc/elements/1.1/" xmlns:inkscape="http://www.inkscape.org/namespaces/inkscape" xmlns:rdf="http://www.w3.org/1999/02/22-rdf-syntax-ns#" xmlns:sodipodi="http://sodipodi.sourceforge.net/DTD/sodipodi-0.dtd" xmlns:svg="http://www.w3.org/2000/svg"><defs id="defs11909"/><g id="layer1" transform="translate(-108.88799,-158.31738)"><path d="m 128.00781,159.76386 a 9.4934403,8.5061215 65.740842 0 0 -3.32778,0.67781 9.4934403,8.5061215 65.740842 0 0 -4.37007,5.13075 8.2782787,8.5061215 0 0 0 -1.55097,-0.15479 8.2782787,8.5061215 0 0 0 -8.2785,8.50611 8.2782787,8.5061215 0 0 0 8.2785,8.50609 8.2782787,8.5061215 0 0 0 7.36453,-4.64028 9.4934403,8.5061215 65.740842 0 0 6.35776,-0.0379 9.4934403,8.5061215 65.740842 0 0 3.85436,-12.14988 9.4934403,8.5061215 65.740842 0 0 -8.32783,-5.83793 z" id="ellipse980" style="opacity:1;fill:none;fill-opacity:1;stroke:#f3e9e9;stroke-width:1.18274081;stroke-linecap:round;stroke-linejoin:round;stroke-miterlimit:4;stroke-dasharray:none;stroke-dashoffset:0;stroke-opacity:1;paint-order:stroke markers fill"/><ellipse cx="118.90536" cy="173.84276" id="path969" rx="8.0410652" ry="8.2623796" style="opacity:1;fill:#9f6b46;fill-opacity:1;stroke:none;stroke-width:0.91451031;stroke-linecap:round;stroke-linejoin:round;stroke-miterlimit:4;stroke-dasharray:none;stroke-dashoffset:0;stroke-opacity:1;paint-order:stroke markers fill"/><ellipse cx="118.90536" cy="173.84276" id="ellipse971" rx="6.6394114" ry="6.8221483" style="opacity:1;fill:#ffffff;fill-opacity:1;stroke:none;stroke-width:0.75510019;stroke-linecap:round;stroke-linejoin:round;stroke-miterlimit:4;stroke-dasharray:none;stroke-dashoffset:0;stroke-opacity:1;paint-order:stroke markers fill"/><ellipse cx="118.90536" cy="173.84276" id="ellipse978" rx="5.0950079" ry="5.2352381" style="opacity:1;fill:#f1edea;fill-opacity:1;stroke:none;stroke-width:0.57945526;stroke-linecap:round;stroke-linejoin:round;stroke-miterlimit:4;stroke-dasharray:none;stroke-dashoffset:0;stroke-opacity:1;paint-order:stroke markers fill"/><path d="m 118.90546,168.68213 a 5.0223229,5.1605521 0 0 0 -5.0225,5.16058 5.0223229,5.1605521 0 0 0 2.86156,4.65138 5.0223229,5.1605521 0 0 1 -1.29657,-3.45152 5.0223229,5.1605521 0 0 1 5.02223,-5.16058 5.0223229,5.1605521 0 0 1 2.16065,0.50892 5.0223229,5.1605521 0 0 0 -3.72537,-1.70878 z" id="ellipse973" style="opacity:1;fill:#dfdcd9;fill-opacity:1;stroke:none;stroke-width:0.57118875;stroke-linecap:round;stroke-linejoin:round;stroke-miterlimit:4;stroke-dasharray:none;stroke-dashoffset:0;stroke-opacity:1;paint-order:stroke markers fill"/><ellipse cx="47.604088" cy="206.99083" id="path961" rx="8.2623796" ry="9.221406" style="opacity:1;fill:#87644e;fill-opacity:1;stroke:none;stroke-width:0.94061106;stroke-linecap:round;stroke-linejoin:round;stroke-miterlimit:4;stroke-dasharray:none;stroke-dashoffset:0;stroke-opacity:1;paint-order:stroke markers fill" transform="rotate(-24.259158)"/><ellipse cx="47.879902" cy="202.82388" id="ellipse965" rx="1.0040164" ry="1.120554" style="opacity:1;fill:#684b36;fill-opacity:1;stroke:none;stroke-width:0.11429988;stroke-linecap:round;stroke-linejoin:round;stroke-miterlimit:4;stroke-dasharray:none;stroke-dashoffset:0;stroke-opacity:1;paint-order:stroke markers fill" transform="rotate(-24.259158)"/><ellipse cx="49.538963" cy="200.53906" id="ellipse967" rx="1.0040164" ry="1.120554" style="opacity:1;fill:#684b36;fill-opacity:1;stroke:none;stroke-width:0.11429988;stroke-linecap:round;stroke-linejoin:round;stroke-miterlimit:4;stroke-dasharray:none;stroke-dashoffset:0;stroke-opacity:1;paint-order:stroke markers fill" transform="rotate(-24.259158)"/><ellipse cx="45.576321" cy="200.69864" id="ellipse963" rx="1.0040164" ry="1.120554" style="opacity:1;fill:#684b36;fill-opacity:1;stroke:none;stroke-width:0.11429988;stroke-linecap:round;stroke-linejoin:round;stroke-miterlimit:4;stroke-dasharray:none;stroke-dashoffset:0;stroke-opacity:1;paint-order:stroke markers fill" transform="rotate(-24.259158)"/></g></svg>