<?xml version="1.0" ?><svg data-name="Layer 1" id="Layer_1" viewBox="0 0 64 64" xmlns="http://www.w3.org/2000/svg"><defs><style>.cls-1{fill:#d8cdc9;}.cls-2{fill:#bdaaa4;}.cls-3{fill:#6d4d42;}.cls-4{fill:#5e4137;}.cls-5{fill:#a1887f;}.cls-6{fill:#8d6e63;}.cls-7{fill:#42a047;}.cls-8{fill:#378e43;}</style></defs><path class="cls-1" d="M60,36c0,2.57-4.29,4.75-10.33,5.6A1.9464,1.9464,0,0,0,48,43.52V44a1.9991,1.9991,0,0,1-2.34,1.97A2.0717,2.0717,0,0,1,44,43.89a1.9355,1.9355,0,0,0-1.85-1.93C34.18,41.62,28,39.08,28,36c0-3.32,7.16-6,16-6S60,32.68,60,36Z"/><path class="cls-2" d="M60,36c0,2.57-4.29,4.75-10.33,5.6A1.9464,1.9464,0,0,0,48,43.52V44a1.9991,1.9991,0,0,1-2.34,1.97A2.0717,2.0717,0,0,1,44,43.89V30C52.84,30,60,32.68,60,36Z"/><path class="cls-3" d="M33.58,48.13A18.4637,18.4637,0,0,1,22,52C12.06,52,4,45.05,4,34s8.06-22,18-22c8.8,0,16.13,8.59,17.69,18.23C32.95,30.93,28,33.25,28,36A15.9468,15.9468,0,0,0,33.58,48.13Z"/><path class="cls-4" d="M33.58,48.13A18.4637,18.4637,0,0,1,22,52V12c8.8,0,16.13,8.59,17.69,18.23C32.95,30.93,28,33.25,28,36A15.9468,15.9468,0,0,0,33.58,48.13Z"/><ellipse class="cls-5" cx="44" cy="36" rx="11.09" ry="2"/><path class="cls-6" d="M55.09,36c-1.84.92-5.71,2-11.09,2V34C49.38,34,53.25,35.08,55.09,36Z"/><path class="cls-7" d="M60,20a15.94,15.94,0,0,1-5.04,11.64,27.9254,27.9254,0,0,0-5.35-1.25,38.5034,38.5034,0,0,0-4.44-.37A15.995,15.995,0,0,1,60,20Z"/><path class="cls-8" d="M60,20a15.94,15.94,0,0,1-5.04,11.64,27.9254,27.9254,0,0,0-5.35-1.25Z"/><path class="cls-3" d="M59.99,36.24A15.9959,15.9959,0,0,1,28,36c0,3.08,6.18,5.62,14.15,5.96A1.9355,1.9355,0,0,1,44,43.89V44a1.9991,1.9991,0,0,0,2.34,1.97A2.0717,2.0717,0,0,0,48,43.89v-.37a1.9464,1.9464,0,0,1,1.67-1.92C55.52,40.78,59.73,38.7,59.99,36.24Z"/><path class="cls-4" d="M59.99,36.24A15.9824,15.9824,0,0,1,44,52V44a1.9991,1.9991,0,0,0,2.34,1.97A2.0717,2.0717,0,0,0,48,43.89v-.37a1.9464,1.9464,0,0,1,1.67-1.92C55.52,40.78,59.73,38.7,59.99,36.24Z"/><circle class="cls-5" cx="22" cy="16" r="1"/><circle class="cls-5" cx="25" cy="20" r="1"/><circle class="cls-5" cx="19" cy="20" r="1"/><path d="M44,33c-4.48-.02-12.08,1.1608-12.0939,3C31.9076,37.835,39.5275,39.0216,44,39c4.48.02,12.08-1.1609,12.094-3C56.0924,34.165,48.4725,32.9784,44,33Zm0,4a31.3079,31.3079,0,0,1-8.2119-1c3.7829-1.2857,12.6409-1.2857,16.4238,0A31.3079,31.3079,0,0,1,44,37Z"/><path d="M60,19A16.9122,16.9122,0,0,0,44.5244,29.01a38.3556,38.3556,0,0,0-4.0343.1429C38.448,18.9052,30.4857,11,22,11,11.8784,11,3,21.7476,3,34,2.5905,50.1033,21.0638,58.2934,33.556,49.3851,44.4113,58.1067,61.1262,50.0307,61,36c0-1.9971-1.6917-3.59-4.2859-4.7487A16.7913,16.7913,0,0,0,61,20,1,1,0,0,0,60,19ZM32.0171,48.0449C20.6345,55.5062,4.6241,48.4417,5,34,5,23.0093,13.103,13,22,13c7.5083,0,14.6,7.1055,16.5107,16.3589C34.3551,30.0437,27.4961,31.2943,27,36A17.06,17.06,0,0,0,32.0171,48.0449ZM44,51A15.0057,15.0057,0,0,1,29.5122,39.8019c3.1232,1.93,6.87,2.6231,10.4847,3.0052.9807.2642,2.8743-.3464,3.0032,1.0859a2.7433,2.7433,0,0,0,.0486.554l0,.0039A2.8881,2.8881,0,0,0,44.4475,46.55a2.9907,2.9907,0,0,0,4.5034-2.0992l0-.0039A4.811,4.811,0,0,0,49,43.5215a.9433.9433,0,0,1,.8115-.9263,22.0494,22.0494,0,0,0,8.7129-2.8418A15.0256,15.0256,0,0,1,44,51ZM59,36c0,1.6245-3.2529,3.7314-9.47,4.6147A2.9539,2.9539,0,0,0,47,43.5215a1.3937,1.3937,0,0,1-.4555,1.2946.9756.9756,0,0,1-.19.0992.9255.9255,0,0,1-.7174-.0029.9851.9851,0,0,1-.1813-.0955A1.16,1.16,0,0,1,45,43.8931a2.931,2.931,0,0,0-2.812-2.9322c-8.0035-.438-13.59-2.7382-13.1242-5.3447,2.9288-5.11,16.6634-5.115,22.0192-3.9677C55.623,32.4785,59.0839,34.3793,59,36Zm-4.3022-5.5073a34.7573,34.7573,0,0,0-8.0049-1.4033,14.9189,14.9189,0,0,1,12.2724-8.0542A14.8243,14.8243,0,0,1,54.6978,30.4927Z"/><path d="M22,47C14.3457,47,9,41.6543,9,34a1,1,0,0,0-2,0c0,8.8315,6.1685,15,15,15A1,1,0,0,0,22,47Z"/><path d="M22,15a1,1,0,0,0,0,2A1,1,0,0,0,22,15Z"/><path d="M25,19a1,1,0,0,0,0,2A1,1,0,0,0,25,19Z"/><path d="M19,21a1,1,0,0,0,0-2A1,1,0,0,0,19,21Z"/></svg>