<?xml version="1.0" encoding="utf-8"?>
<!-- Generator: Adobe Illustrator 16.0.0, SVG Export Plug-In . SVG Version: 6.00 Build 0)  -->
<!DOCTYPE svg PUBLIC "-//W3C//DTD SVG 1.1//EN" "http://www.w3.org/Graphics/SVG/1.1/DTD/svg11.dtd">
<svg version="1.1" id="Layer_1" xmlns="http://www.w3.org/2000/svg" xmlns:xlink="http://www.w3.org/1999/xlink" x="0px" y="0px"
	 width="440px" height="567px" viewBox="0 0 440 567" enable-background="new 0 0 440 567" xml:space="preserve">
<path fill="#FFD631" d="M404.598,120.411c-23.273-69.89-89.37-110.16-181.475-110.16h-1.338c-66.97,0-148.136,12.546-181.475,110.16
	c-21.528,62.914,6.4,162.425,34.386,236.415l0,0l1.571,4.162l1.688,4.346l0,0c10.706,27.601,20.48,49.388,24.728,58.936
	c12.102,26.928,29.091,35.251,44.336,42.533c7.548,2.992,14.481,7.48,20.422,13.22c5.585,7.285,10.17,15.361,13.615,23.99l0,0
	l1.28,2.877c9.192,20.746,19.607,44.309,39.739,44.309h1.28c20.132,0,30.547-23.563,39.74-44.309
	c2.269-5.08,4.363-9.854,6.574-14.26c2.16-4.562,4.857-8.817,8.029-12.669c5.941-5.739,12.874-10.227,20.423-13.219
	c15.127-7.283,32.233-15.606,44.336-42.534c5.353-12.24,14.139-33.415,23.273-58.874l0,0l1.571-4.529l1.512-4.039l0,0
	C391.564,293.057,424.787,181.061,404.598,120.411z"/>
<path fill="#FBED6B" d="M202,492"/>
<line fill="#FBED6B" x1="260.467" y1="478.727" x2="258.569" y2="478.727"/>
<path fill="#FBED6B" d="M183.744,510.059c0,2.449-11.538-25.222-11.232-22.774"/>
<path fill="#F8B133" d="M340.148,429.118c-11.199,23.93-26.928,31.15-42.105,38.004c-9.07,3.445-17.385,8.621-24.48,15.24
	c-0.488,0.611-1.039,1.162-1.529,1.836c-0.107-0.174-0.23-0.338-0.367-0.49c-0.279-0.641-0.65-1.238-1.102-1.775l-0.428-0.551
	c-0.51-0.559-1.084-1.051-1.715-1.469c-0.92-0.607-1.934-1.063-2.998-1.346h-0.428c-1.045-0.256-2.109-0.42-3.184-0.49h-1.346
	h-1.898h-0.979l-3.244,0.49c0-37.332-6.119-38.25-9.363-38.678c-3.244-0.43-19.094,0-26.867,9.854
	c-5.835,7.33-12.088,14.318-18.727,20.93l-28.765-21.236v9.057c0,4.406,0,8.814,0.489,13.221c0,1.469,0,2.875,0.429,4.344
	c0,2.449,0.367,4.896,0.673,7.344l-0.918-1.039c-7.08-6.637-15.398-11.816-24.479-15.238c-15.178-6.979-30.601-14.199-42.167-38.129
	c-4.467-9.547-14.749-31.273-25.949-58.752c1.164-0.551,2.266-1.285,3.428-1.896l4.529-2.51c1.774-1.102,3.488-2.264,5.141-3.428
	c1.652-1.162,2.814-1.896,4.162-2.938c1.346-1.039,3.182-2.631,4.773-3.977c1.591-1.348,2.509-2.143,3.732-3.305
	c1.225-1.164,2.877-3,4.346-4.59c1.469-1.592,2.203-2.326,3.243-3.551s2.632-3.428,3.856-5.201c1.223-1.775,1.896-2.51,2.754-3.795
	c0.856-1.285,2.325-3.916,3.488-6.119c1.162-2.203,1.469-2.51,2.142-3.857c1.163-2.264,2.081-4.59,3.06-6.977
	c0.49-1.162,1.041-2.203,1.469-3.365c1.354-3.604,2.499-7.281,3.428-11.016c9.828-41.291,47.162-70.107,89.597-69.156
	c42.438-0.791,79.655,28.188,89.292,69.523c0.92,3.736,2.064,7.416,3.426,11.016c0.43,1.162,1.041,2.264,1.531,3.488
	c0.918,2.326,1.896,4.65,2.998,6.854c1.102,2.205,1.529,2.633,2.264,3.918s2.143,3.979,3.367,5.814s1.896,2.57,2.814,3.855
	s2.51,3.488,3.855,5.141c1.348,1.652,2.203,2.447,3.305,3.611c1.102,1.162,2.754,3.121,4.285,4.59l3.732,3.305
	c1.592,1.346,3.121,2.691,4.773,3.977s2.754,1.959,4.162,2.938c1.408,0.98,3.365,2.326,5.141,3.367l4.59,2.57l3.428,1.896
	c-9.73,25.459-19.033,46.818-24.604,58.691H340.148z"/>
<path fill="#FFFFFF" d="M223.127,554.283h-1.777c-19.317,0-30.907-24.398-42.267-47.97l-1.546-3.163
	c-0.619-2.107-1.159-4.217-1.7-6.325c-0.541-2.109-1.159-3.841-1.623-5.798c-0.463-1.959-0.927-4.368-1.391-6.478
	c-0.463-2.108-0.85-4.066-1.237-6.175c-0.385-2.107-0.771-5.12-1.082-7.53c-0.309-2.41-0.617-3.539-0.773-5.271
	c-0.54-4.368,0.654-11.771,0.422-16.137l27.473,17.943l0,0c10.079-9.44,19.526-19.501,28.28-30.123
	c5.976-5.036,13.661-7.721,21.56-7.53c2.961,14.395,7.049,24.3,6.242,38.959l0.166,9.882l4.564,0.334
	c4.871-2.023,10.246-2.599,15.455-1.657c0,0,0,0,0,0.979c0,1.958,0,3.916,0,5.949c0.037,0.702,0.037,1.406,0,2.109
	c0,1.204,0,2.409,0,3.688c-2.859,5.348-5.643,10.995-8.502,17.02c-11.279,22.894-22.949,47.292-42.188,47.292H223.127z"/>
</svg>
