<?xml version="1.0" ?><svg id="Layer_1" style="enable-background:new 0 0 52 52;" version="1.1" viewBox="0 0 52 52" xml:space="preserve" xmlns="http://www.w3.org/2000/svg" xmlns:xlink="http://www.w3.org/1999/xlink"><style type="text/css">
	.st0{fill:#4D8E00;}
	.st1{fill:#4B7F01;}
	.st2{fill:#8EC804;}
	.st3{fill:#63B400;}
	.st4{opacity:0.5;fill:#FFFFFF;}
	.st5{fill:#322C75;}
	.st6{fill:#242266;}
	.st7{fill:#624BA3;}
	.st8{fill:#513F93;}
	.st9{fill:#6363C1;}
	.st10{fill:#423584;}
	.st11{fill:#8780DD;}
	.st12{fill:#9F94ED;}
	.st13{opacity:0.15;fill:#FFFFFF;}
	.st14{opacity:0.7;fill:#FFFFFF;}
	.st15{fill:#7674D1;}
	.st16{fill:#9E1919;}
	.st17{fill:#E82323;}
	.st18{opacity:0.2;fill:#FFFFFF;}
	.st19{fill:#BF2B2B;}
	.st20{fill:#AF2222;}
	.st21{fill:#FFFFFF;}
	.st22{fill:#FFBC00;}
	.st23{fill:#E27C03;}
	.st24{fill:#F9D84E;}
	.st25{fill:#FF9900;}
	.st26{opacity:0.3;fill:#FFFFFF;}
	.st27{fill:#ACBA24;}
	.st28{fill:#B6CC36;}
	.st29{fill:#A0A01C;}
	.st30{fill:#A3AA1D;}
	.st31{fill:#C56818;}
	.st32{fill:#AD5514;}
	.st33{fill:#589E00;}
	.st34{fill:#387903;}
	.st35{fill:#D7E54C;}
	.st36{fill:#EFC252;}
	.st37{fill:#FBD35A;}
	.st38{fill:#FCE97C;}
	.st39{fill:#CECB5D;}
	.st40{fill:#97AD45;}
	.st41{fill:#5E4512;}
	.st42{fill:#72531C;}
	.st43{fill:#9EBA4F;}
	.st44{fill:#AACC5E;}
	.st45{fill:#A10616;}
	.st46{fill:#B7162E;}
	.st47{fill:#701243;}
	.st48{fill:#7F1C55;}
	.st49{fill:#630D3F;}
	.st50{opacity:0.4;fill:#FFFFFF;}
	.st51{fill:#D63427;}
	.st52{fill:#EA4A42;}
	.st53{fill:#C6261E;}
	.st54{fill:#C12921;}
	.st55{fill:#AF221E;}
	.st56{fill:#FFEE9C;}
	.st57{opacity:0.6;fill:#FFFFFF;}
	.st58{fill:#C11414;}
	.st59{opacity:0.7;fill:#F9D84E;}
	.st60{fill:#D31A1A;}
	.st61{fill:#FF3333;}
	.st62{fill:#C93636;}
	.st63{fill:#FFCC00;}
	.st64{fill:#F28B03;}
	.st65{opacity:0.1;fill:#FFFFFF;}
	.st66{fill:#FFA733;}
	.st67{fill:#FFEB99;}
	.st68{fill:#FFF0B3;}
	.st69{fill:#540837;}
	.st70{fill:#FFE8AE;}
	.st71{fill:#B24B90;}
	.st72{fill:#CC3333;}
	.st73{fill:#FFAA00;}
	.st74{fill:#FFE266;}
	.st75{fill:#FCF3A4;}
	.st76{fill:#FFFABB;}
	.st77{fill:#2A7902;}
	.st78{fill:#CC9966;}
	.st79{fill:#BC895B;}
	.st80{fill:#E0AA79;}
	.st81{fill:#B0E51F;}
	.st82{fill:#5C3B33;}
	.st83{fill:#F4FFC5;}
	.st84{fill:#5C422F;}
	.st85{fill:#EC2941;}
	.st86{fill:#D21D3C;}
	.st87{opacity:0.25;fill:#FFFFFF;}
	.st88{fill:#589303;}
	.st89{fill:#699E0B;}
	.st90{opacity:0.8;fill:#FFEF8F;}
	.st91{opacity:0.8;}
	.st92{fill:#FFF7CF;}
	.st93{fill:#FE980F;}
	.st94{fill:#F76E03;}
	.st95{fill:#FFA131;}
	.st96{fill:#FFB533;}
	.st97{fill:#FFC25F;}
	.st98{fill:#FF9933;}
	.st99{fill:#7A2B0F;}
	.st100{fill:#893815;}
	.st101{fill:#963E20;}
	.st102{fill:#EAC803;}
	.st103{fill:#F6DB0C;}
	.st104{fill:#FFE650;}
	.st105{fill:#8F5E2C;}
	.st106{fill:#3C005B;}
	.st107{fill:#4F067A;}
	.st108{fill:#AB3B1B;}
	.st109{fill:#C94C2F;}
	.st110{opacity:0.7;fill:#9B2C13;}
	.st111{opacity:0.7;fill:#AB3B1B;}
	.st112{fill:#998853;}
	.st113{fill:#83743D;}
	.st114{fill:#DFE269;}
	.st115{fill:#E9F27D;}
	.st116{opacity:0.3;fill:#57803C;}
	.st117{fill:#D3D359;}
	.st118{fill:#57803C;}
	.st119{fill:#6E9952;}
	.st120{fill:#E5B283;}
	.st121{fill:#E8D4B8;}
	.st122{fill:#F3E0C2;}
	.st123{fill:#633C27;}
	.st124{fill:#F6EDDE;}
	.st125{fill:#E2B988;}
	.st126{fill:#3F3438;}
	.st127{fill:#FF3366;}
	.st128{fill:#FF5F8D;}
	.st129{fill:#D3DAE0;}
	.st130{fill:#3C3D38;}
	.st131{fill:#7F5738;}
	.st132{fill:#90B700;}
	.st133{fill:#99CC00;}
	.st134{fill:#669900;}
	.st135{fill:#5C8200;}
	.st136{fill:#7DAA0E;}
	.st137{fill:#71910D;}
	.st138{fill:#E0FBA2;}
	.st139{fill:#EDFFBD;}
	.st140{fill:#B7DB46;}
	.st141{fill:#EFC100;}
	.st142{fill:#724B36;}
	.st143{fill:#FFE578;}
	.st144{fill:#F4D556;}
	.st145{fill:#996633;}
	.st146{fill:#AD7644;}
	.st147{fill:#993300;}
	.st148{fill:#892A00;}
	.st149{fill:#9B9B18;}
	.st150{fill:#F7C089;}
	.st151{fill:#FFCE99;}
	.st152{fill:#FFC37B;}
	.st153{fill:#C16430;}
	.st154{fill:#D37B4A;}
	.st155{fill:#A84E20;}
	.st156{fill:#CB743E;}
	.st157{fill:#DD8250;}
	.st158{fill:#933B0F;}
	.st159{fill:#F7F4ED;}
	.st160{fill:#E2DFD9;}
	.st161{fill:#CECCCA;}
	.st162{fill:#83B200;}
	.st163{fill:#94BF2C;}
	.st164{fill:#AED142;}
	.st165{fill:#FCF6D6;}
	.st166{fill:#F1DBA7;}
	.st167{fill:#8E5149;}
	.st168{fill:#5C459D;}
	.st169{fill:#7E6DD5;}
	.st170{fill:#453884;}
	.st171{fill:#9784FE;}
	.st172{fill:#5E4EAE;}
	.st173{fill:#39285C;}
	.st174{fill:#231549;}
	.st175{fill:#86B700;}
	.st176{fill:#A5D819;}
	.st177{fill:#F4D862;}
	.st178{fill:#FFEB97;}
	.st179{fill:#61312A;}
	.st180{fill:#B27E54;}
	.st181{fill:#852448;}
	.st182{fill:#77183F;}
	.st183{fill:#9B355F;}
	.st184{fill:#8C2F59;}
	.st185{fill:#771D42;}
	.st186{fill:#F85E76;}
	.st187{fill:#FAE5EB;}
	.st188{fill:#705237;}
	.st189{fill:#A7DB19;}
	.st190{fill:#99C108;}
	.st191{fill:#E4F4E9;}
	.st192{fill:#F0FFF4;}
	.st193{fill:#DCF4E2;}
	.st194{fill:#BF2549;}
	.st195{fill:#D3355E;}
	.st196{fill:#AF1E44;}
	.st197{fill:#E04474;}
	.st198{fill:#F3E7E7;}
	.st199{fill:#E5D8D8;}
	.st200{fill:#5A4447;}
	.st201{fill:#C81F26;}
	.st202{fill:#B71A25;}
	.st203{fill:#F14C50;}
	.st204{fill:#831C39;}
	.st205{fill:#CFDD47;}
	.st206{fill:#CDDB49;}
	.st207{fill:#FCF990;}
	.st208{fill:#EAE47D;}
	.st209{fill:#FF6600;}
	.st210{fill:#FF822E;}
	.st211{fill:#869B46;}
	.st212{fill:#C4BB7A;}
	.st213{fill:#D6CC90;}
	.st214{fill:#B2A972;}
	.st215{fill:#C1B980;}
	.st216{fill:#9DB25D;}
	.st217{fill:#E0DC9F;}
	.st218{fill:#FFEEA9;}
	.st219{opacity:0.65;fill:#F9D84E;}
	.st220{fill:#8FA31C;}
	.st221{fill:#FFE780;}
	.st222{fill:#F2CB27;}
	.st223{fill:#4D1C04;}
	.st224{fill:#AA532D;}
	.st225{fill:#9E4526;}
	.st226{fill:#C46341;}
	.st227{fill:#990033;}
	.st228{fill:#890035;}
	.st229{fill:#AF0E4C;}
	.st230{fill:#A80E49;}
	.st231{fill:#FF6633;}
	.st232{fill:#EF4D22;}
	.st233{fill:#77051B;}
	.st234{fill:#CC6633;}
	.st235{fill:#C15627;}
	.st236{fill:#DD774A;}
	.st237{fill:#684F3E;}
	.st238{fill:#725C4C;}
	.st239{fill:#A5541E;}
	.st240{fill:#BF6432;}
	.st241{fill:#AF733E;}
	.st242{fill:#8E5726;}
</style><g><path class="st108" d="M41.13445,43.81963c-17.75431-0.29643-21.52981-7.19219-22.18504-8.87716   c-0.0936-0.23396-0.12484-0.3588-0.12484-0.3588c4.7836-16.0855-4.15229,13.90834,4.74277-15.94451   c0,0,17.94152,4.74277,23.10556,8.11261C51.85255,30.12172,51.74333,44.00684,41.13445,43.81963z"/><path class="st109" d="M41.89495,41.67199c-15.1897-0.25361-18.41982-6.15327-18.9804-7.59485   c-0.08008-0.20017-0.10681-0.30697-0.10681-0.30697c-0.07324,0.24617,3.19411-10.73829,4.05767-13.64132   c0,0,15.34986,4.05767,19.76795,6.94074C51.06482,29.95274,50.97138,41.83215,41.89495,41.67199z"/><path class="st110" d="M31.368,20.87014c-1.59362,5.68631-6.43363,13.17569-10.09401,17.2862   c-1.73442-1.62477-2.08254-2.74421-2.44942-3.57267c4.7836-16.0855-4.15229,13.90834,4.74277-15.94451   C23.56734,18.63916,27.0465,19.55959,31.368,20.87014z"/><g><path class="st111" d="M22.49084,22.2742l0.24968-0.87367h0.01562C23.22268,21.63388,23.19932,22.34509,22.49084,22.2742z"/><path class="st111" d="M32.39774,25.05128c-3.59339-0.27215-5.05775-5.57248-9.03323-5.30449    c-0.04675,0-0.07799,0-0.12474,0.01562l0.23396-0.79568c3.6039,0.99851,6.64618,3.12026,9.26719,5.44485    C33.08345,24.71125,32.95145,25.05128,32.39774,25.05128z"/><path class="st111" d="M45.09745,27.71864c-0.75897,0.53612-1.68934,0.37-2.47309,0.1746    c-3.69765-0.92189-7.58771-1.90729-10.23647-4.45256c-0.27287-0.2622-1.42994-1.25957-0.72126-1.65956    c0.83323-0.47029,1.34927,0.73415,7.28763,3.47579C40.9433,26.17521,42.99366,26.9971,45.09745,27.71864z"/><path class="st111" d="M27.89538,27.7726c-1.24432-0.24938-7.05824-1.86228-4.62625-3.59991    C26.61943,21.77894,32.8545,28.76649,27.89538,27.7726z"/><path class="st111" d="M27.11898,35.08921c0.41751,0.2404,0.81781,0.52158,1.31275,0.62397    c1.28335,0.26549,3.23274-0.7729,3.94343,0.42302c-0.06476,0.64859-1.15326,0.92642-1.38242,1.57113    c-0.25783,0.72536,0.65106,1.148,2.34252,2.34238c1.91341,1.35109,4.63717-1.04353,5.07741-0.93475    c0.33884,0.08372,0.38653,0.98909,0.35414,1.29472c-0.1509,1.42379-1.76882,1.46704-3.18086,1.22178    c-3.41243-0.59272-7.05101-2.49918-7.06846-3.16421c-0.00678-0.25846,1.42651-2.46894-1.94266-1.89595    c-0.74801,0.12722-2.48754,0.15333-2.08409-1.01454C24.91285,34.33491,26.48224,34.72259,27.11898,35.08921z"/><path class="st111" d="M40.2397,31.32829c0.31642,0.15317,0.65906,0.29703,0.84303,0.58648    c0.59241,0.9321-0.99995,3.98675,5.06248,3.03593c0.7697-0.10167,1.48743-0.94837,1.4085-1.66161    c-0.06016-0.5436-0.49352-0.91936-0.62353-1.43876c-0.13102-0.52339,0.03165-1.20974-0.36742-1.54919    c-0.32866-0.27956-0.87952-0.17957-1.35735-0.18158c-1.63036-0.00686-2.38678-1.16883-5.0005-2.01556    c-0.66143-0.21428-1.20759-0.15848-1.75274-0.57928c-0.85846-0.66264-1.52932-0.4092-1.76447,0.04997    C37.31423,28.73753,37.96356,30.22645,40.2397,31.32829z"/><path class="st111" d="M21.37032,30.36759c-0.54222-0.43683-0.9035-0.95465-0.45438-1.49377    c1.13135-1.35807,3.45956,2.05636,4.81712,2.12435c0.45613,0.02284,0.9328-0.19562,1.40123-0.32725    c1.09158-0.30674,2.16341-0.14288,3.19144,0.02342c7.18357,1.16208,6.26043,2.7072,9.2205,3.65228    c0.86631,0.27659,4.21973,0.46898,3.72595,3.68215c-0.30875,2.00909-2.37974,3.55963-3.40633,3.46139    c-0.34002-0.03254-0.63433-0.27529-0.61813-0.61518c0.01532-0.32163,0.28223-0.6217,0.42855-0.93679    c0.36665-0.78952-0.21592-1.66458-1.05394-1.58309c-0.76051,0.07395-1.4286,0.75115-2.18185,1.01688    c-1.13737,0.40124-2.16538-0.20023-3.01356-0.78132c-0.34491-0.2363-0.72259-0.58675-0.5495-1.03377    c0.11012-0.28441,0.41005-0.4867,0.57354-0.75498c0.30795-0.50531,0.02011-1.08554-0.4469-1.29388    c-0.37685-0.16811-0.78497-0.11744-1.2061-0.15083c-0.40944-0.03246-0.73554-0.2384-1.12323-0.29882    c-0.48141-0.07504-0.99448-0.08594-1.48054-0.15659C25.97915,34.43447,25.45202,33.65589,21.37032,30.36759z"/><path class="st111" d="M22.52208,35.20776c-0.54071,0.47011-1.55316,0.18827-3.57267-0.26529    c-0.0936-0.23396-0.12484-0.3588-0.12484-0.3588c0.0297-0.10098,0.66285-2.25353,0.62409-2.12176    c0.85805,0.40565,1.91893,0.59286,2.73023,1.0765C23.12802,34.11838,22.91406,34.87761,22.52208,35.20776z"/><path class="st13" d="M42.37154,31.56656c0.03518,1.1038-0.77709,1.86199,1.07616,2.49798    c2.19964,0.75486,3.12407-0.88036,1.73977-2.29735c-1.06195-1.08703-2.33648-1.97544-3.76291-2.62293    c-0.29174-0.13243-1.65662-0.54788-1.63782,0.20705C39.80495,30.08223,42.31271,29.72066,42.37154,31.56656z"/><path class="st13" d="M42.55957,27.07519c-3.64652-0.99214-5.28724-1.66531-8.48192-3.47752    C35.95491,25.93103,39.45898,27.24177,42.55957,27.07519z"/><path class="st13" d="M31.64903,24.24074c-0.37869-1.05456-1.59179-2.09278-2.84507-2.29782    C29.36936,22.87187,30.66734,23.88186,31.64903,24.24074z"/><path class="st13" d="M29.00914,34.14654c-2.60494-0.79643-2.93384-0.8216-3.10209-1.24657    c-0.13439-0.33945,0.07261-0.80458,0.41348-1.08123c0.92678-0.75219,2.07027-0.14897,3.189-0.14453    c4.30512,0.01709,5.11439,2.04972,8.32561,3.0403c1.25584,0.38739,2.73731,0.49872,3.57968,1.42204    c1.38307,1.51598-0.03711,4.67282-0.93051,3.53284c-0.15612-0.19921-0.20012-0.46984-0.28011-0.71656    c-0.46907-1.44686-2.18923-2.03787-3.84671-1.23524c-0.46349,0.22444-1.49892,0.95205-1.99361,0.40399    c-0.28304-0.31358-0.09048-0.85751-0.03978-1.31988c0.19448-1.77356-1.56747-2.58647-3.53826-2.669    C30.13346,34.10537,29.64444,34.34077,29.00914,34.14654z"/><path class="st13" d="M31.33497,36.28721c-0.09166-0.29763-0.61714,0.02217-0.76042,0.06382    c-0.33373,0.09701-0.69609-0.06968-0.99014,0.17837c-0.28846,0.24334-0.44251,1.51622,0.14319,1.25615    C30.16822,37.58989,31.42048,36.56487,31.33497,36.28721z"/><path class="st13" d="M36.57075,41.1028c-0.17432-0.49139,1.30317-1.77412,1.6896-0.967    C38.62154,40.89019,36.80606,41.76615,36.57075,41.1028z"/><path class="st13" d="M25.13778,35.84431c-0.5425-0.93229,1.96261-0.5563,1.4198,0.03415    C26.38313,36.06821,25.35556,36.21857,25.13778,35.84431z"/><path class="st13" d="M18.98055,34.0688l0.18721-0.63961c0.49006,0.39145,1.0332,0.39001,1.15458,0.70208    C20.50954,34.64604,19.54226,34.31847,18.98055,34.0688z"/></g><path class="st13" d="M43.73984,43.5232c-10.75349-2.98201-19.65655-15.07946-18.00389-24.29127   c4.59377,1.26198,16.90238,4.88107,20.93695,7.51985C51.38453,29.82528,51.72781,41.60427,43.73984,43.5232z"/><path class="st18" d="M46.78608,37.67463c-2.06422,0.62705-4.50154-1.68467-5.83024-3.38573   c-4.05902-5.19656-3.0529-4.72672-11.23488-8.58333c-0.94163-0.44384-2.27491-1.52518-1.11674-2.62504   c0.75266-0.71476,2.02462-0.35089,2.92787-0.30235c3.00313,0.16138,5.95895,0.85325,8.70638,2.02804   C51.58216,29.65672,49.73453,36.77898,46.78608,37.67463z"/><path class="st108" d="M24.95507,29.64431C12.32128,50.67525-2.39695,50.48851,3.20682,27.00769   c1.74734-7.30141,7.19219-13.24551,11.66976-17.89467c4.22701-4.38953,9.61807-0.69547,10.42167-0.5461   C25.29826,8.56691,35.28314,12.4361,24.95507,29.64431z"/><path class="st109" d="M25.09014,28.10827C13.50586,47.39211,0.01032,47.22089,5.14857,25.69068   c1.60218-6.69486,6.59471-12.14517,10.70032-16.40812c3.87253-4.02143,8.84276-0.6333,9.55592-0.50074   C25.40481,8.78183,34.56023,12.32959,25.09014,28.10827z"/><g><path class="st111" d="M16.96617,10.84617c-0.26843,0.00337-0.53816-0.07162-0.80289-0.02708    c-0.39118,0.06582-0.69038,0.37526-0.94789,0.67699c-2.66439,3.12239-4.0366,7.14347-4.90153,11.08448    c-0.1118,0.50943,0.21159,0.61347,0.5187,0.31568c1.47389-1.42913,1.66953-4.9366,2.01192-6.39997    c0.34557-1.47695,1.44755-3.46928,2.59886-3.47006c0.29268-0.0002,0.6011,0.19136,0.64841,0.48018    c0.0483,0.29492-0.17036,0.55734-0.29181,0.8304c-0.21093,0.47424,0.11384,1.04048,0.64951,0.49489    c0.09829-0.10011,2.95005-2.99,3.11326-3.55293C20.04791,9.60527,17.56565,10.83864,16.96617,10.84617z"/><path class="st111" d="M3.33105,32.44203c0.76076-0.00552,1.32379-0.68076,1.7732-1.29462    c2.12027-2.89612,4.34388-5.95556,5.01671-9.56056c0.06931-0.37137,0.41461-1.8532-0.25058-1.76636    C9.08309,19.92327,8.17569,24.60791,3.33105,32.44203z"/><path class="st111" d="M18.26398,15.26854c0.03555,0.1072,0.13445,0.15744,0.23378,0.20125    c2.37562,1.04799,2.81207-0.12923,3.79927-0.83675c0.34587-0.24788,2.21082-1.13628,1.25918-1.88154    c-2.96998-2.32588-2.96567,0.67712-4.00839,1.52728C19.22473,14.54222,18.06963,14.68248,18.26398,15.26854z"/><path class="st111" d="M15.14403,22.49479c0.74082-0.92519,4.00124-5.61151,1.55466-5.60983    C13.35944,16.88726,12.20317,26.16757,15.14403,22.49479z"/><path class="st111" d="M18.96003,27.98442c-0.17823,0.43768-0.32635,0.89848-0.61959,1.26907    c-0.74453,0.94096-2.56181,1.26464-2.51261,2.63383c0.4492,0.65473,2.40224-0.34935,1.74395,1.71307    c-0.56833,1.78054-0.82754,3.96665-3.98745,4.03897c-0.5393,0.01234-0.75731,0.17944-0.53778,0.75892    c0.17211,0.45429,0.39102,0.98513,0.90459,1.10425c1.94357,0.45077,4.84591-5.27424,5.5377-7.36773    c0.21936-0.66381-0.06517-0.70113-0.41201-0.96306c-0.58123-0.43895-0.69182-1.36235,0.9213-2.30001    c0.56971-0.33116,1.77355-1.32028,0.97289-2.03419C20.13336,26.09065,19.23183,27.31693,18.96003,27.98442z"/><path class="st111" d="M8.28024,32.55141c-0.1481,0.30814-0.31835,0.62395-0.31451,0.96581    c0.01203,1.07119,2.45497,2.668-2.10675,5.40528c-0.57312,0.3645-1.44501,0.09389-1.71104-0.53104    c-0.20276-0.4763-0.07443-1.0331-0.21845-1.53033c-0.14513-0.50105-0.56466-0.96384-0.44353-1.47123    c0.09976-0.41787,0.52215-0.65663,0.84871-0.93579c1.124-0.96085,1.08923-2.30111,2.52225-4.54081    c0.35712-0.55814,0.75644-0.83005,0.94117-1.48834c0.28961-1.03204,0.86236-1.22179,1.23164-0.98424    c0.01929,0.27269,0.16588,1.04141,0.08169,2.04357C9.02228,30.54556,8.74172,31.59122,8.28024,32.55141z"/><path class="st111" d="M19.88383,24.23222c1.01965-3.88965,1.05145-3.87644,1.00534-4.25067    c-0.09188-0.74567-0.85401-0.89966-1.27461-0.31484c-0.21491,0.29882-0.8734,2.51823-0.96215,2.87891    c-0.62149,2.52576-1.12478,0.55083-3.86255,3.73297c-4.45397,5.1769-2.97274,5.67526-4.67965,8.32071    c-0.41103,0.63703-2.68663,2.82471-0.90077,5.1537c1.11324,1.4518,3.22775,1.50881,3.88797,0.832    c0.21841-0.2239,0.31115-0.59194,0.1475-0.85849c-0.15486-0.25224-0.47245-0.34086-0.71415-0.51171    c-0.60563-0.42809-0.59915-1.47692,0.01173-1.89749c0.55438-0.38166,1.31617-0.21986,1.95165-0.44159    c1.3602-0.47462,2.16433-3.10161,1.62713-3.54317c-0.20312-0.16696-0.49945-0.15701-0.73191-0.27988    c-0.43784-0.23142-0.50101-0.86971-0.27447-1.31011c0.18281-0.35537,0.48523-0.55126,0.75886-0.82297    c0.26602-0.26416,0.39708-0.62077,0.63564-0.895c0.29623-0.34053,0.64295-0.64737,0.94435-0.98705    C18.99451,27.30109,19.33909,26.31023,19.88383,24.23222z"/><path class="st111" d="M23.10271,24.8473c-0.24752,0.29071-0.56052,0.60548-0.94056,0.56872    c-0.44569-0.0431-0.89433-0.57422-0.51336-1.56423c0.51844-1.34726,1.81446-2.45942,1.73547-3.90082    c-0.04552-0.83057-0.94497-2.46585,0.10687-3.1295c0.84795-0.53501,3.53736-0.56784,4.25341,0.08807    c0.98906,0.90599-0.72768,2.75383-1.26106,3.52661C25.43068,21.96146,24.29771,23.43083,23.10271,24.8473z"/><path class="st65" d="M6.92621,33.98305c0.44992,0.87503,1.36877,1.05965,0.38366,2.65322    c-1.13412,1.83463-2.55112,1.19364-2.22341-0.85482c0.23987-1.49938,0.71457-2.96096,1.40151-4.31515    c0.14049-0.27696,0.88939-1.40702,1.21535-0.78314C8.01791,31.28527,6.13842,32.45089,6.92621,33.98305z"/><path class="st65" d="M4.78149,30.44558c2.0425-2.90753,2.86956-4.4075,4.25193-7.74984    C8.80273,25.57408,7.06622,28.71556,4.78149,30.44558z"/><path class="st65" d="M10.9864,21.8073c-0.21672-1.09089,0.15973-2.63324,0.91842-3.5181    C11.93321,19.33181,11.51911,20.91036,10.9864,21.8073z"/><path class="st65" d="M17.88226,12.21421c0.2331-0.15174,0.51356-0.33714,0.50329-0.61509    c-0.01335-0.36109-0.52693-0.65565-1.1371-0.13084c-0.39433,0.33916-1.17734,1.5505-0.71524,2.04835    C17.01751,13.22312,17.35959,12.55446,17.88226,12.21421z"/><path class="st65" d="M17.24158,28.31685c1.35225-2.04543,1.64408-2.35785,1.56639-2.81384    c-0.10646-0.62485-0.9813-0.93392-1.74606-0.26009c-0.46987,0.414-0.78834,0.94316-1.27291,1.3572    c-2.92668,2.50064-2.61417,4.6791-4.34105,7.30407c-0.68677,1.04394-1.65206,1.99477-1.81493,3.23369    c-0.2132,1.62179,1.20491,2.89889,1.78101,2.8635c0.25255-0.01551,0.42475-0.28312,0.44232-0.53553    c0.01758-0.25241-0.07374-0.49771-0.12966-0.74448c-0.33225-1.46625,0.60719-2.9306,2.08177-3.23712    c0.45384-0.09434,1.45442-0.09669,1.54756-0.82989c0.11421-0.89902-1.76306-1.36966-0.61046-3.70228    c0.30378-0.61478,0.77071-1.15199,1.27219-1.61456C16.44946,28.93933,16.89341,28.84351,17.24158,28.31685z"/><path class="st65" d="M16.60847,31.40578c-0.0291-0.12128,0.07604-0.23716,0.19093-0.28569    c0.33224-0.14032,0.20188,0.05972,0.71571-0.369c0.3646-0.3042,0.60295-0.17024,0.84641,0.21205    c0.15948,0.25042,0.40137,0.6309,0.02099,0.72561C18.11475,31.75543,16.67264,31.67321,16.60847,31.40578z"/><path class="st65" d="M15.18172,38.35667c-0.10061-0.49784-1.68979-0.68753-1.59192,0.1962    C13.68086,39.37516,15.31674,39.02481,15.18172,38.35667z"/><path class="st65" d="M20.65668,27.44681c-0.01303-0.29928-0.32586-0.53108-0.68941-0.0942    C18.66519,28.91735,20.68918,28.19351,20.65668,27.44681z"/><path class="st65" d="M24.14943,18.52638c0.49837-1.66866,2.00973-2.05917,2.59985-1.4791    c0.41532,0.40826,0.21405,1.14017-0.1854,1.56398c-0.39944,0.4238-0.94935,0.68532-1.33687,1.12006    c-0.57078,0.64033-0.70287,1.5443-0.97992,2.35614c-0.09116,0.26711-0.91662,1.85503-1.05559,1.16778    c-0.05916-0.29258,0.28844-0.69892,0.3874-0.95426C24.05134,21.08208,23.78006,19.76312,24.14943,18.52638z"/><path class="st65" d="M20.0634,15.35035c-0.55508,0.26699-1.03787-0.23371-0.34201-0.41967    c0.53211-0.1422,0.47714-0.47044,0.57356-0.83093c0.12903-0.48236,0.8905-1.26982,1.99808-0.99339    c0.11552,0.02883,0.23954,0.07143,0.22288,0.21748C22.45939,13.81921,20.70004,15.04413,20.0634,15.35035z"/></g><path class="st13" d="M24.95588,29.63808c-3.35432,5.56968-6.41212,9.18911-9.07998,11.48255   C10.86758,34.0897,8.311,24.12201,9.18296,15.50328c1.85656-2.35581,3.85348-4.49319,5.69443-6.3966   c4.2271-4.38944,9.61817-0.69538,10.42177-0.54601C25.29916,8.56067,35.28395,12.42977,24.95588,29.63808z"/><path class="st18" d="M23.2726,12.53449c-2.16818,0.48623-3.3228,3.80956-3.74911,6.00527   c-1.30751,6.7342-0.60819,5.79955-6.27967,13.42237c-0.65277,0.87736-1.36922,2.5266,0.1889,2.92634   c1.01257,0.25978,2.00248-0.71359,2.80175-1.21624c2.6574-1.67119,5.02832-3.79504,6.9881-6.24691   C31.28649,17.33655,26.39158,11.83504,23.2726,12.53449z"/><g><path class="st21" d="M24.4734,14.6783c-1.85657,0.89222-3.72585-3.04563-1.88809-3.92881    C23.35337,10.38038,26.31986,13.79094,24.4734,14.6783z"/><path class="st21" d="M22.38597,16.29633c-1.00761,0.48423-2.02212-1.65295-1.02472-2.13228    C21.7781,13.96373,23.3881,15.81473,22.38597,16.29633z"/><path class="st21" d="M24.6722,16.36614c-0.45913,0.22065-0.92141-0.75319-0.46693-0.9716    C24.39521,15.30325,25.12884,16.14669,24.6722,16.36614z"/><path class="st21" d="M20.47475,13.58048c-0.45913,0.22065-0.92141-0.75319-0.46693-0.9716    C20.19776,12.51759,20.93138,13.36103,20.47475,13.58048z"/></g><g><path class="st21" d="M46.64867,31.36934c-1.85657,0.89222-3.72585-3.04563-1.88809-3.92881    C45.52864,27.07142,48.49514,30.48197,46.64867,31.36934z"/><path class="st21" d="M44.56125,32.98737c-1.00761,0.48423-2.02213-1.65295-1.02472-2.13227    C43.95338,30.65476,45.56338,32.50577,44.56125,32.98737z"/><path class="st21" d="M46.84748,33.05717c-0.45913,0.22065-0.92141-0.75319-0.46693-0.9716    C46.57049,31.99429,47.30412,32.83772,46.84748,33.05717z"/><path class="st21" d="M42.65002,30.27152c-0.45913,0.22065-0.92141-0.75319-0.46693-0.97161    C42.37304,29.20863,43.10666,30.05207,42.65002,30.27152z"/></g></g></svg>