<?xml version="1.0" ?><svg id="Layer_1" style="enable-background:new 0 0 256 256;" version="1.1" viewBox="0 0 256 256" xml:space="preserve" xmlns="http://www.w3.org/2000/svg" xmlns:xlink="http://www.w3.org/1999/xlink"><style type="text/css">
	.st0{fill:#A56021;}
	.st1{fill:#E58D23;}
	.st2{fill:#FCE575;}
	.st3{fill:#FFF4C1;}
	.st4{fill:#FFD551;}
	.st5{fill:#BF6C0D;}
	.st6{fill:#8C4C17;}
	.st7{fill:#FF624B;}
	.st8{fill:#FF4B34;}
	.st9{fill:#DB9C2E;}
	.st10{fill:#FFC34C;}
	.st11{fill:#F9BB32;}
	.st12{fill:#FF9079;}
	.st13{fill:#FCDA4F;}
	.st14{fill:#EACF32;}
	.st15{fill:#CCC033;}
	.st16{fill:#99AF17;}
	.st17{fill:#FFA730;}
	.st18{fill:#FFB74B;}
	.st19{fill:#FFDF74;}
	.st20{fill:#FFD59A;}
	.st21{fill:#FCF9DE;}
	.st22{fill:#FFEACF;}
	.st23{fill:#FFEA63;}
	.st24{fill:#FFEEA4;}
	.st25{fill:#FFF9DC;}
</style><g><g><rect class="st15" height="47.5" width="9.5" x="95.481" y="29.302"/></g><g><rect class="st16" height="47.5" width="6" x="95.481" y="29.302"/></g><g><circle class="st15" cx="99.546" cy="148.737" r="90.25"/></g><g><path class="st16" d="M39.296,148.738c0-44.733,32.547-81.857,75.25-89.002c-4.879-0.816-9.889-1.248-15-1.248    c-49.844,0-90.25,40.406-90.25,90.25s40.406,90.25,90.25,90.25c5.111,0,10.121-0.432,15-1.248    C71.843,230.594,39.296,193.47,39.296,148.738z"/></g><g><g><path class="st15" d="M55.731,36.224c-5.559,0-9.117-0.065-9.749-0.078c-2.761-0.055-4.955-2.337-4.9-5.098     s2.354-4.951,5.098-4.9c0.736,0.012,74.126,1.336,106.66-9.204c2.628-0.851,5.446,0.589,6.298,3.216     c0.851,2.627-0.589,5.447-3.216,6.298C128.792,35.247,77.271,36.224,55.731,36.224z"/></g></g><g><path class="st14" d="M70.837,96.224c-0.771-0.792-2.037-0.81-2.829-0.041c-4.28,4.16-11.148,4.061-15.307-0.219    c-4.16-4.28-4.062-11.147,0.219-15.307c0.792-0.77,0.811-2.036,0.041-2.829c-0.771-0.792-2.037-0.81-2.829-0.041    c-5.428,5.274-5.942,13.725-1.467,19.603l-12.304,11.885c-0.794,0.768-0.816,2.034-0.049,2.828c0.393,0.406,0.915,0.61,1.438,0.61    c0.5,0,1.001-0.187,1.39-0.562l12.352-11.931c2.637,2.007,5.803,3.016,8.973,3.016c3.725,0,7.454-1.391,10.33-4.186    C71.588,98.283,71.606,97.017,70.837,96.224z"/></g><g><g><path class="st14" d="M80.501,112.715c-0.523,0-1.046-0.204-1.438-0.61c-0.768-0.795-0.746-2.061,0.049-2.828l13.668-13.202     c0.794-0.768,2.06-0.747,2.828,0.049c0.768,0.795,0.746,2.061-0.049,2.828l-13.668,13.202     C81.502,112.528,81.001,112.715,80.501,112.715z"/></g><g><path class="st14" d="M103.22,103.246c-0.073,0-0.145-0.001-0.218-0.002c-3.959-0.057-7.66-1.652-10.42-4.492     c-2.759-2.839-4.248-6.584-4.191-10.543c0.057-3.96,1.652-7.66,4.492-10.42c0.792-0.769,2.058-0.751,2.828,0.041     c0.77,0.792,0.751,2.059-0.041,2.828c-2.073,2.015-3.238,4.717-3.279,7.607c-0.042,2.892,1.045,5.626,3.06,7.699     c2.016,2.073,4.718,3.238,7.609,3.28c0.053,0,0.106,0.001,0.159,0.001c2.832,0,5.504-1.084,7.54-3.063     c0.792-0.769,2.058-0.753,2.828,0.041c0.77,0.792,0.752,2.058-0.04,2.828C110.759,101.762,107.099,103.246,103.22,103.246z"/></g></g><g><g><path class="st14" d="M123.251,112.715c-0.523,0-1.046-0.204-1.438-0.61c-0.768-0.795-0.746-2.061,0.049-2.828l13.668-13.202     c0.794-0.768,2.06-0.747,2.828,0.049c0.768,0.795,0.746,2.061-0.049,2.828l-13.668,13.202     C124.252,112.528,123.751,112.715,123.251,112.715z"/></g><g><path class="st14" d="M145.97,103.246c-0.073,0-0.145-0.001-0.218-0.002c-3.959-0.057-7.66-1.652-10.42-4.492     c-2.759-2.839-4.248-6.584-4.191-10.543c0.057-3.96,1.652-7.66,4.492-10.42c0.792-0.769,2.058-0.751,2.828,0.041     c0.77,0.792,0.751,2.059-0.041,2.828c-2.073,2.015-3.238,4.717-3.279,7.607c-0.042,2.892,1.045,5.626,3.06,7.699     c2.016,2.073,4.718,3.238,7.609,3.28c0.053,0,0.106,0.001,0.159,0.001c2.832,0,5.504-1.084,7.54-3.063     c0.792-0.769,2.058-0.753,2.828,0.041c0.77,0.792,0.752,2.058-0.04,2.828C153.509,101.762,149.849,103.246,145.97,103.246z"/></g></g><g><g><path class="st14" d="M100.451,155.465c-0.523,0-1.046-0.204-1.438-0.61c-0.768-0.795-0.746-2.061,0.049-2.828l13.668-13.202     c0.793-0.768,2.06-0.747,2.828,0.049c0.768,0.795,0.746,2.061-0.049,2.828l-13.668,13.202     C101.453,155.278,100.952,155.465,100.451,155.465z"/></g><g><path class="st14" d="M123.17,145.996c-0.073,0-0.145-0.001-0.218-0.002c-3.96-0.057-7.66-1.652-10.42-4.492     c-2.759-2.839-4.248-6.584-4.191-10.543c0.057-3.96,1.651-7.66,4.492-10.42c0.792-0.769,2.058-0.751,2.828,0.041     c0.77,0.792,0.751,2.059-0.041,2.828c-2.073,2.015-3.238,4.717-3.279,7.607c-0.042,2.892,1.045,5.625,3.061,7.699     c2.015,2.073,4.717,3.238,7.608,3.28c2.896,0.007,5.625-1.046,7.699-3.062c0.792-0.769,2.059-0.753,2.828,0.041     c0.77,0.792,0.752,2.058-0.04,2.828C130.708,144.512,127.048,145.996,123.17,145.996z"/></g></g><g><g><path class="st14" d="M57.701,155.465c-0.523,0-1.046-0.204-1.438-0.61c-0.768-0.795-0.746-2.061,0.049-2.828l13.668-13.202     c0.793-0.768,2.06-0.747,2.828,0.049c0.768,0.795,0.746,2.061-0.049,2.828l-13.668,13.202     C58.703,155.278,58.202,155.465,57.701,155.465z"/></g><g><path class="st14" d="M80.42,145.996c-0.073,0-0.145-0.001-0.218-0.002c-3.96-0.057-7.66-1.652-10.42-4.492     c-2.759-2.839-4.248-6.584-4.191-10.543c0.057-3.96,1.651-7.66,4.492-10.42c0.792-0.769,2.059-0.751,2.828,0.041     s0.751,2.059-0.041,2.828c-2.073,2.015-3.238,4.717-3.279,7.607c-0.042,2.892,1.045,5.625,3.061,7.699     c2.015,2.073,4.717,3.238,7.608,3.28c2.897,0.007,5.625-1.046,7.699-3.062c0.792-0.769,2.059-0.753,2.828,0.041     c0.77,0.792,0.752,2.058-0.04,2.828C87.958,144.512,84.298,145.996,80.42,145.996z"/></g></g><g><path class="st14" d="M48.037,138.974c-0.771-0.792-2.037-0.81-2.828-0.041c-4.281,4.159-11.147,4.062-15.308-0.219    c-2.015-2.073-3.102-4.808-3.061-7.699c0.041-2.891,1.206-5.593,3.28-7.608c0.792-0.77,0.81-2.036,0.041-2.829    c-0.771-0.792-2.037-0.81-2.828-0.041c-2.84,2.76-4.435,6.46-4.492,10.42c-0.048,3.356,1.018,6.557,3.024,9.184l-12.303,11.884    c-0.794,0.768-0.816,2.034-0.049,2.828c0.393,0.406,0.915,0.61,1.438,0.61c0.5,0,1.001-0.187,1.39-0.562l12.352-11.931    c2.637,2.007,5.803,3.017,8.974,3.017c3.724,0,7.454-1.392,10.33-4.186C48.788,141.033,48.806,139.767,48.037,138.974z"/></g><g><path class="st14" d="M59.586,183.149c-0.77-0.792-2.036-0.81-2.828-0.04c-2.036,1.978-4.708,3.062-7.54,3.062    c-0.053,0-0.106,0-0.159-0.001c-2.892-0.041-5.593-1.206-7.608-3.28c-4.16-4.28-4.062-11.147,0.219-15.308    c0.792-0.77,0.81-2.036,0.04-2.828c-0.77-0.792-2.036-0.811-2.828-0.04c-5.427,5.274-5.941,13.725-1.467,19.603l-12.304,11.885    c-0.794,0.767-0.816,2.034-0.049,2.828c0.393,0.406,0.915,0.61,1.438,0.61c0.5,0,1.001-0.187,1.39-0.562l12.35-11.928    c2.507,1.915,5.549,2.973,8.762,3.019c0.073,0.001,0.145,0.002,0.218,0.002c3.878,0,7.539-1.484,10.326-4.194    C60.338,185.208,60.356,183.942,59.586,183.149z"/></g><g><g><path class="st14" d="M66.251,199.64c-0.523,0-1.046-0.204-1.438-0.61c-0.768-0.795-0.746-2.061,0.049-2.828l13.668-13.202     c0.794-0.768,2.06-0.747,2.828,0.049c0.768,0.795,0.746,2.061-0.049,2.828l-13.668,13.202     C67.252,199.453,66.751,199.64,66.251,199.64z"/></g><g><path class="st14" d="M88.966,190.164c-3.868,0-7.731-1.5-10.633-4.486c-5.697-5.862-5.562-15.267,0.3-20.964     c0.792-0.769,2.058-0.753,2.828,0.041c0.77,0.792,0.752,2.058-0.04,2.828c-4.281,4.159-4.379,11.026-0.219,15.308     c4.159,4.278,11.026,4.377,15.307,0.218c0.792-0.768,2.058-0.753,2.828,0.041c0.77,0.792,0.752,2.058-0.04,2.828     C96.42,188.772,92.691,190.164,88.966,190.164z"/></g></g><g><g><path class="st14" d="M109.001,199.64c-0.523,0-1.046-0.204-1.438-0.61c-0.768-0.795-0.746-2.061,0.049-2.828l13.668-13.202     c0.794-0.768,2.06-0.747,2.828,0.049c0.768,0.795,0.746,2.061-0.049,2.828l-13.668,13.202     C110.002,199.453,109.501,199.64,109.001,199.64z"/></g><g><path class="st14" d="M131.716,190.164c-3.868,0-7.731-1.5-10.633-4.486c-5.697-5.862-5.562-15.267,0.3-20.964     c0.792-0.769,2.059-0.753,2.828,0.041c0.77,0.792,0.752,2.058-0.04,2.828c-4.281,4.159-4.379,11.026-0.219,15.308     c4.159,4.278,11.027,4.377,15.307,0.218c0.792-0.768,2.058-0.753,2.828,0.041c0.77,0.792,0.752,2.058-0.04,2.828     C139.17,188.772,135.441,190.164,131.716,190.164z"/></g></g><g><g><path class="st14" d="M148.826,199.64c-0.523,0-1.046-0.204-1.438-0.61c-0.768-0.795-0.746-2.061,0.049-2.828l13.668-13.202     c0.794-0.768,2.06-0.747,2.828,0.049c0.768,0.795,0.746,2.061-0.049,2.828l-13.668,13.202     C149.828,199.453,149.327,199.64,148.826,199.64z"/></g><g><path class="st14" d="M171.544,190.171c-0.073,0-0.145-0.001-0.217-0.002c-3.959-0.057-7.66-1.651-10.419-4.491     c-5.697-5.862-5.563-15.267,0.299-20.964c0.792-0.769,2.058-0.753,2.828,0.041c0.77,0.792,0.752,2.058-0.04,2.828     c-4.281,4.159-4.379,11.026-0.219,15.308c2.015,2.073,4.717,3.237,7.608,3.279c2.896-0.005,5.625-1.046,7.699-3.062     c0.792-0.768,2.058-0.753,2.828,0.041c0.77,0.792,0.752,2.058-0.04,2.828C179.083,188.687,175.423,190.171,171.544,190.171z"/></g></g><g><g><path class="st14" d="M141.776,155.465c-0.523,0-1.046-0.204-1.438-0.61c-0.768-0.795-0.746-2.061,0.049-2.828l13.668-13.202     c0.793-0.768,2.06-0.747,2.828,0.049c0.768,0.795,0.746,2.061-0.049,2.828l-13.668,13.202     C142.777,155.278,142.276,155.465,141.776,155.465z"/></g><g><path class="st14" d="M164.495,145.996c-0.073,0-0.145-0.001-0.218-0.002c-3.959-0.057-7.66-1.652-10.42-4.492     c-2.759-2.839-4.248-6.584-4.191-10.543c0.057-3.96,1.652-7.66,4.492-10.42c0.792-0.769,2.058-0.751,2.828,0.041     c0.77,0.792,0.751,2.059-0.041,2.828c-2.073,2.015-3.238,4.717-3.279,7.607c-0.042,2.892,1.045,5.626,3.06,7.699     c2.016,2.073,4.718,3.238,7.609,3.28c2.892,0.007,5.625-1.046,7.699-3.062c0.792-0.769,2.058-0.753,2.828,0.041     c0.77,0.792,0.752,2.058-0.04,2.828C172.034,144.512,168.374,145.996,164.495,145.996z"/></g></g><g><g><path class="st14" d="M99.37,236.401c-0.524,0-1.048-0.205-1.44-0.612c-0.767-0.796-0.743-2.063,0.053-2.828l9.049-8.714     c0.795-0.767,2.061-0.742,2.828,0.053c0.767,0.796,0.743,2.063-0.053,2.828l-9.049,8.714     C100.37,236.216,99.87,236.401,99.37,236.401z"/></g><g><path class="st14" d="M117.466,231.414c-3.868,0-7.731-1.5-10.633-4.486c-5.697-5.862-5.562-15.267,0.3-20.964     c0.792-0.769,2.058-0.753,2.828,0.041c0.77,0.792,0.752,2.058-0.04,2.828c-4.281,4.159-4.379,11.026-0.219,15.308     c4.159,4.279,11.027,4.376,15.307,0.218c0.792-0.769,2.059-0.753,2.828,0.041c0.77,0.792,0.752,2.058-0.04,2.828     C124.92,230.022,121.191,231.414,117.466,231.414z"/></g></g><g><path class="st14" d="M85.086,225.899c-0.77-0.792-2.036-0.811-2.828-0.04c-2.073,2.015-4.807,3.126-7.699,3.061    c-2.892-0.041-5.593-1.206-7.608-3.28c-4.16-4.28-4.062-11.147,0.219-15.308c0.792-0.77,0.81-2.036,0.04-2.828    c-0.77-0.792-2.036-0.81-2.828-0.04c-5.862,5.697-5.997,15.101-0.3,20.964c2.76,2.84,6.46,4.435,10.42,4.491    c0.073,0.001,0.145,0.002,0.218,0.002c3.878,0,7.539-1.484,10.326-4.194C85.838,227.958,85.856,226.692,85.086,225.899z"/></g><g><g><path class="st14" d="M147.907,225.385c-0.667,0-1.318-0.333-1.698-0.939c-3.672-5.875-2.727-13.646,2.248-18.481     c0.792-0.769,2.058-0.753,2.828,0.041c0.77,0.792,0.752,2.058-0.04,2.828c-3.633,3.53-4.324,9.204-1.644,13.491     c0.585,0.938,0.301,2.171-0.636,2.757C148.636,225.287,148.269,225.385,147.907,225.385z"/></g></g><g><path class="st16" d="M85.731,28.724c-5.559,0-9.117-0.065-9.749-0.078c-1.866-0.037-3.47-1.094-4.299-2.626    c-14.729,0.322-25.227,0.132-25.503,0.128c-2.744-0.051-5.043,2.139-5.098,4.9s2.139,5.043,4.9,5.098    c0.632,0.013,4.19,0.078,9.749,0.078c21.541,0,73.061-0.977,100.191-9.766c1.029-0.333,1.872-0.971,2.47-1.778    C132.136,28.22,101.201,28.724,85.731,28.724z"/></g><g><path class="st15" d="M82.436,225.718c-0.06,0.046-0.122,0.087-0.177,0.141c-2.073,2.015-4.807,3.126-7.699,3.061    c-2.892-0.041-5.593-1.206-7.608-3.28c-3.54-3.643-3.985-9.154-1.403-13.281c-0.964-0.97-1.906-1.961-2.826-2.974    c-4.161,5.723-3.735,13.798,1.361,19.042c2.76,2.84,6.46,4.435,10.42,4.491c0.073,0.001,0.145,0.002,0.218,0.002    c3.878,0,7.539-1.484,10.326-4.194c0.328-0.319,0.515-0.723,0.577-1.144C84.547,226.983,83.484,226.361,82.436,225.718z"/></g><g><path class="st15" d="M49.002,190.169c0.073,0.001,0.145,0.002,0.218,0.002c0.045,0,0.089-0.003,0.133-0.003    c-0.71-1.372-1.391-2.762-2.031-4.173c-2.224-0.39-4.267-1.454-5.871-3.104c-4.048-4.166-4.052-10.773-0.104-14.959    c-0.269-1.24-0.511-2.489-0.729-3.748c-0.609-0.105-1.259,0.067-1.736,0.531c-5.427,5.274-5.941,13.725-1.467,19.603    l-12.304,11.885c-0.794,0.767-0.816,2.034-0.049,2.828c0.393,0.406,0.915,0.61,1.438,0.61c0.5,0,1.001-0.187,1.39-0.562    l12.35-11.928C42.748,189.065,45.79,190.123,49.002,190.169z"/></g><g><path class="st15" d="M39.345,145.89c0.042-1.363,0.114-2.719,0.217-4.067c-3.417,0.604-7.066-0.438-9.661-3.109    c-2.015-2.073-3.102-4.808-3.061-7.699c0.041-2.891,1.206-5.593,3.28-7.608c0.792-0.77,0.81-2.036,0.041-2.829    c-0.771-0.792-2.037-0.81-2.828-0.041c-2.84,2.76-4.435,6.46-4.492,10.42c-0.048,3.356,1.018,6.557,3.024,9.184l-12.303,11.884    c-0.794,0.768-0.816,2.034-0.049,2.828c0.393,0.406,0.915,0.61,1.438,0.61c0.5,0,1.001-0.187,1.39-0.562l12.352-11.931    c2.637,2.007,5.803,3.017,8.974,3.017C38.227,145.989,38.787,145.953,39.345,145.89z"/></g><g><path class="st15" d="M37.751,112.715c0.5,0,1.001-0.187,1.39-0.562l12.352-11.931c0.44,0.335,0.899,0.632,1.366,0.911    c0.706-1.134,1.436-2.25,2.19-3.35c-0.843-0.487-1.637-1.087-2.348-1.819c-4.16-4.28-4.062-11.147,0.219-15.307    c0.792-0.77,0.811-2.036,0.041-2.829c-0.771-0.792-2.037-0.81-2.829-0.041c-5.428,5.274-5.942,13.725-1.467,19.603l-12.304,11.885    c-0.794,0.768-0.816,2.034-0.049,2.828C36.705,112.511,37.228,112.715,37.751,112.715z"/></g><g><path class="st19" d="M156.546,239.299c48.435,0,87.958-38.155,90.154-86.047c0.105-2.286-1.71-4.203-3.998-4.203H70.391    c-2.289,0-4.103,1.917-3.998,4.203C68.588,201.145,108.111,239.299,156.546,239.299z"/></g><g><path class="st2" d="M212.738,210.736c-0.79,0-1.578-0.31-2.167-0.925c-1.146-1.196-1.105-3.096,0.091-4.242    c13.261-12.7,21.663-29.693,23.66-47.848c0.181-1.647,1.662-2.836,3.31-2.654c1.647,0.182,2.835,1.663,2.654,3.311    c-2.15,19.553-11.197,37.852-25.473,51.525C214.231,210.46,213.484,210.736,212.738,210.736z"/></g><g><path class="st4" d="M156.546,217.924c37.978,0,68.875-30.897,68.875-68.875H87.671    C87.671,187.027,118.568,217.924,156.546,217.924z"/></g><g><path class="st4" d="M186.546,224.3c-44.733,0-81.862-32.546-89.006-75.25H70.391c-2.289,0-4.103,1.917-3.998,4.203    c2.196,47.892,41.719,86.047,90.154,86.047c20.531,0,39.46-6.858,54.625-18.406C203.342,223.109,195.084,224.3,186.546,224.3z"/></g><g><path class="st10" d="M152.927,217.829c-28.724-11.538-50.141-37.42-55.387-68.78h-9.869    C87.671,185.813,116.625,215.941,152.927,217.829z"/></g><g><path class="st18" d="M156.546,208.424c32.739,0,59.375-26.636,59.375-59.375H97.171    C97.171,181.789,123.807,208.424,156.546,208.424z"/></g><g><g><path class="st13" d="M157.133,176.64c-0.399-0.404-1.018-0.397-1.406,0.016c-4.233,4.498-4.036,8.084-4.036,8.084l0.015,0     c-0.008,0.165-0.01,0.331-0.008,0.499c0.049,3.501,2.26,6.316,4.94,6.288c2.679-0.028,4.812-2.888,4.763-6.388     c-0.002-0.168-0.01-0.334-0.022-0.499l0.015,0C161.394,184.64,161.491,181.05,157.133,176.64z"/></g><g><path class="st13" d="M178.842,169.955c-0.568-0.003-1,0.439-0.983,1.006c0.188,6.173,2.863,8.57,2.863,8.57l0.01-0.011     c0.111,0.122,0.227,0.242,0.347,0.359c2.51,2.441,6.064,2.868,7.939,0.954c1.875-1.914,1.361-5.445-1.149-7.886     c-0.12-0.117-0.243-0.23-0.368-0.337l0.01-0.011C187.512,172.599,185.042,169.992,178.842,169.955z"/></g><g><path class="st13" d="M132.736,170.066c0.568-0.003,1,0.439,0.983,1.006c-0.188,6.173-2.863,8.57-2.863,8.57l-0.01-0.011     c-0.111,0.122-0.227,0.242-0.347,0.359c-2.51,2.441-6.064,2.868-7.939,0.954c-1.875-1.914-1.361-5.445,1.149-7.886     c0.12-0.117,0.243-0.23,0.368-0.337l-0.01-0.011C124.066,172.71,126.536,170.103,132.736,170.066z"/></g><g><path class="st13" d="M193.277,155.537c-0.549,0.144-0.852,0.683-0.689,1.226c1.779,5.915,4.983,7.537,4.983,7.537l0.007-0.013     c0.139,0.089,0.282,0.175,0.428,0.257c3.056,1.708,6.6,1.201,7.915-1.134c1.316-2.334-0.095-5.611-3.151-7.319     c-0.147-0.082-0.294-0.159-0.443-0.231l0.007-0.013C202.335,155.847,199.275,153.968,193.277,155.537z"/></g><g><path class="st13" d="M120.395,156.583c0.15-0.547-0.165-1.08-0.717-1.21c-6.012-1.417-9.019,0.547-9.019,0.547l0.008,0.013     c-0.146,0.076-0.292,0.157-0.436,0.243c-3.007,1.792-4.34,5.115-2.976,7.422c1.364,2.307,4.907,2.723,7.914,0.931     c0.144-0.086,0.285-0.176,0.421-0.268l0.008,0.013C115.597,164.273,118.755,162.562,120.395,156.583z"/></g></g><g><circle class="st16" cx="113.576" cy="71.961" r="8.75"/></g></g></svg>