<?xml version="1.0" ?><svg style="enable-background:new 0 0 48 48;" version="1.1" viewBox="0 0 48 48" xml:space="preserve" xmlns="http://www.w3.org/2000/svg" xmlns:xlink="http://www.w3.org/1999/xlink"><g id="Layer_2"/><g id="Layer_1"><g><g><path d="M39.00005,20.30992c0,0-4.87006,0.95001-10.67004,3.98999     c-2.71997,1.42999-5.64996,3.32001-8.38,5.79004c-0.00995,0.00995-0.00995,0.00995-0.00995,0.00995     c-1.95001,1.77002-3.79004,3.83002-5.37006,6.23004c-0.31995,0.48999-0.35999,0.92999-0.56,1.47998     c-0.07996,0.23999-0.16998,0.47998-0.33997,0.65997c-0.19,0.20001-0.45001,0.30005-0.71002,0.34003     c-0.01996,0-0.03998,0.01001-0.06,0.01001c-0.23999,0.02997-0.48999,0.02997-0.72998-0.01001     c-0.15002-0.02002-0.29999-0.06-0.44-0.10999c-0.04999-0.01001-0.10004-0.03003-0.15002-0.04999     c-0.32001-0.13-0.60999-0.32001-0.88-0.53003c-0.00995-0.01001-0.00995-0.01001-0.01996-0.02002     c-0.22003-0.16998-0.44-0.35999-0.60004-0.57996c-0.06-0.07001-0.10999-0.14001-0.14996-0.22003     c-0.12-0.21997-0.17999-0.44-0.19-0.67999v-0.01001C9.72002,36.0399,9.98003,35.44993,10.45,35.12992     c0.41003-0.27002,1.09003-0.35999,1.27002-0.81c0.06-0.14001,2.60999-3.88001,7.72998-7.85999     c0.41003-0.33002,0.84003-0.65002,1.28003-0.97003c0,0,0.01001-0.01001,0.02002-0.02002     c1.25995-0.89996,2.64996-1.81,4.17999-2.67999c0.40997-0.23999,0.83997-0.46997,1.26996-0.69995     c2.09003-1.10004,4.40002-2.12006,6.95001-2.95001c1.64001-0.54004,3.38-1.01001,5.21002-1.38l0.42999,1.70001L39.00005,20.30992     z" style="fill:#B1D752;"/><path d="M39.00005,20.30992c0,0-4.87006,0.95001-10.67004,3.98999     c-2.71997,1.42999-5.64996,3.32001-8.38,5.79004c-0.00995,0.00995-0.00995,0.00995-0.00995,0.00995     c-1.95001,1.77002-3.79004,3.83002-5.37006,6.23004c-0.31995,0.48999-0.35999,0.92999-0.56,1.47998     c-0.07996,0.23999-0.16998,0.47998-0.33997,0.65997c-0.19,0.20001-0.45001,0.30005-0.71002,0.34003     c-0.01996,0-0.03998,0.01001-0.06,0.01001c-0.23999,0.02997-0.48999,0.02997-0.72998-0.01001     c-0.15002-0.02002-0.29999-0.06-0.44-0.10999c0.32001-0.34003,0.65997-0.66998,0.91998-1.08002     c0.45001-0.71997,0.75-1.53998,1.15002-2.28998c0.45996-0.83002,1.06-1.58002,1.69-2.29999     c6-6.90003,14.32996-11.73004,23.29999-13.57001L39.00005,20.30992z" style="fill:#ADCE46;"/><path d="M39.45,12.25993c0,0-2.01996,0.94-3.19995,1.82001     c-0.22003,0.15997-0.41003,0.32001-0.55005,0.46997c-1.35999,0.62-2.85999,1.42999-4.20996,2.21002     c0.73999-0.89001,1.47998-2.66998,2.04999-4.29004c0,0,0,0,0.01001-0.00995c0.06-0.04004,0.31-0.21002,0.67999-0.46002     c1.14996-0.78003,3.39996-2.27002,3.75-2.32001l0.46002,0.81l0.52997,0.94L39.45,12.25993z" style="fill:#559928;"/><path d="M39.45,16.1699c0,0-2.07996,0.41003-4.17999,1.51001c-0.56,0.29999-1.12,0.64001-1.64001,1.03998     c-0.12994,0.10004-0.31995,0.27002-0.47998,0.42004c-2.54999,0.82996-4.85999,1.84998-6.95001,2.95001     c0.42999-0.66003,0.86005-1.66003,1.27002-2.82001c0.27002-0.20001,0.73999-0.51001,1.33002-0.89001     c0.73999-0.46002,1.67999-1.03003,2.69-1.62c1.34998-0.78003,2.84998-1.59003,4.20996-2.21002     c1-0.45001,1.92999-0.79999,2.67004-0.95996L39.45,16.1699z" style="fill:#6EB239;"/><path d="M34.61004,9.09989c0,0-0.42999,1.58002-1.06,3.36005     c-0.01001,0.00995-0.01001,0.00995-0.01001,0.00995c-0.41003,1.18005-0.91998,2.44-1.45001,3.38     c-0.20001,0.36005-0.39996,0.66003-0.59998,0.91003c-1.83002,1.06-3.41003,2.08002-4.02002,2.51001     c0.31-0.87,0.60999-1.83002,0.89001-2.81c0-0.01001,0.01001-0.02002,0.01001-0.03003c0.14996-0.27997,0.37-0.71002,0.56-1.09998     c0.14996-0.29999,0.32996-0.64001,0.51001-1.01001C30.50005,12.20994,31.95,9.1699,31.95,8.1699l1.04004,0.37L34.61004,9.09989z" style="fill:#5DA032;"/><path d="M30.16003,9.17991c0,0-0.76001,3.69-1.78998,7.25c0,0.01001-0.01001,0.02002-0.01001,0.03003     c-0.28003,0.97998-0.58002,1.94-0.89001,2.81c-0.02002,0.04999-0.02997,0.08997-0.04999,0.13995     c-0.09003,0.25-0.19,0.5-0.28003,0.74005c-0.31,0.77997-0.62,1.44995-0.94,1.94     c-2.02997,1.06995-3.84998,2.22998-5.44995,3.37994c0.08997-0.12994,0.51996-0.81995,1.09998-1.81995     c0.28998-0.51001,0.62-1.09003,0.96997-1.73004c1.34003-2.44,2.91003-5.60999,3.40002-7.79999     c0.89001-4.01001,1.17999-5.47998,1.17999-5.47998L30.16003,9.17991z" style="fill:#B1D752;"/><path d="M22.23003,27.27995c-0.33002,0.73999-0.98999,1.25995-1.53998,1.84998     c-0.27002,0.29999-0.52002,0.63-0.74005,0.96002c-0.00995,0.00995-0.00995,0.00995-0.00995,0.00995     c-1.95001,1.77002-3.79004,3.83002-5.37006,6.23004c-0.31995,0.48999-0.35999,0.92999-0.56,1.47998     c-0.03998,0.12-0.07996,0.23999-0.13995,0.34998c-0.02002,0.05005-0.04004,0.09003-0.08002,0.13     c-0.02002,0.06-0.07001,0.13-0.12,0.17999c-0.19,0.20001-0.45001,0.30005-0.71002,0.34003     c-0.01996,0-0.03998,0.01001-0.06,0.01001c-0.23999,0.02997-0.48999,0.02997-0.72998-0.01001     c-0.15002-0.02002-0.29999-0.06-0.44-0.10999c-0.04999-0.01001-0.10004-0.03003-0.15002-0.04999     c-0.32001-0.13-0.60999-0.32001-0.88-0.53003c-0.00995-0.01001-0.00995-0.01001-0.01996-0.02002     c-0.22003-0.16998-0.44-0.35999-0.60004-0.57996c-0.06-0.07001-0.10999-0.14001-0.14996-0.22003     c-0.12-0.21997-0.17999-0.44-0.19-0.67999v-0.01001c-0.01001-0.33997,0.07996-0.69,0.26001-0.97998     c0.10999-0.20001,0.25995-0.37,0.44995-0.5c0.41003-0.27002,1.09003-0.35999,1.27002-0.81     c0.06-0.14001,2.60999-3.88001,7.72998-7.85999c1.35004-0.65002,2.83002-1.28003,4.15002-1.92999c-1,0.83997-2,1.66998-3,2.50995     c0.52002-0.26996,1.02997-0.53998,1.54999-0.81c-0.22998,0.27002-0.42999,0.57001-0.57001,0.89001     c0.04999,0.03998,0.10004,0.07001,0.16003,0.09003C21.89001,27.2899,22.06005,27.30992,22.23003,27.27995z" style="fill:#EFECC5;"/><path d="M22.23003,27.27995c-0.33002,0.73999-0.98999,1.25995-1.53998,1.84998     c-0.27002,0.29999-0.52002,0.63-0.74005,0.96002c-0.00995,0.00995-0.00995,0.00995-0.00995,0.00995     c-1.95001,1.77002-3.79004,3.83002-5.37006,6.23004c-0.31995,0.48999-0.35999,0.92999-0.56,1.47998     c-0.03998,0.12-0.07996,0.23999-0.13995,0.34998c-0.02002,0.05005-0.04004,0.09003-0.08002,0.13     c-0.02002,0.06-0.07001,0.13-0.12,0.17999c-0.19,0.20001-0.45001,0.30005-0.71002,0.34003     c-0.01996,0-0.03998,0.01001-0.06,0.01001c-0.23999,0.02997-0.48999,0.02997-0.72998-0.01001     c-0.15002-0.02002-0.29999-0.06-0.44-0.10999c0.32001-0.34003,0.65997-0.66998,0.91998-1.08002     c0.45001-0.71997,0.75-1.53998,1.15002-2.28998c0.45996-0.83002,1.06-1.58002,1.69-2.29999     c1.87-2.15003,3.96997-4.10004,6.25-5.82001C21.89001,27.2899,22.06005,27.30992,22.23003,27.27995z" style="fill:#E5E1B3;"/><path d="M28.33001,24.29991c0.60004-0.65997,1.33002-1.20001,2.13-1.58002     c-0.39001-0.21997-0.89001-0.00995-1.34998,0c-0.12,0.02002-0.23999,0.01001-0.35999-0.02997     c0.12994-0.16998,0.25995-0.34003,0.39996-0.51001c-0.85999,0.22003-1.73999,0.38-2.62,0.47998     c0.70001-0.39996,1.38-0.79999,2.08002-1.20996c-0.72003,0.34998-2.79004,0.98999-3.67999,1.33997     c0.40997-0.23999,0.83997-0.46997,1.26996-0.69995c2.09003-1.10004,4.40002-2.12006,6.95001-2.95001     c1.64001-0.54004,3.38-1.01001,5.21002-1.38l0.42999,1.70001l0.21002,0.84998     C39.00005,20.30992,34.13,21.25993,28.33001,24.29991z" style="fill:#8FC62E;"/><path d="M28.33001,24.29991c0.60004-0.65997,1.33002-1.20001,2.13-1.58002     c-0.39001-0.21997-0.89001-0.00995-1.34998,0c3.08002-1.46997,6.33997-2.56995,9.67999-3.25995l0.21002,0.84998     C39.00005,20.30992,34.13,21.25993,28.33001,24.29991z" style="fill:#88BA1C;"/><path d="M30.16003,9.17991c0,0-0.76001,3.69-1.78998,7.25c0,0.01001-0.01001,0.02002-0.01001,0.03003     c-0.28003,0.97998-0.58002,1.94-0.89001,2.81c-0.0118,0.03217-0.08755-1.07136-0.07896-1.13575     c-0.35004,0.72998-0.64299,1.24069-0.99303,1.97067c0.16003-1.03998,0.18198-1.17495,0.34201-2.21493     c-0.79004,1.12-1.69,2.14996-2.70001,3.07001c0.20001-0.55005,0.39001-1.10004,0.58997-1.65002     c-0.23999,0.66998-0.91998,1.38-1.34998,1.95001c-0.14001,0.19-0.28998,0.42999-0.46002,0.65997     c1.34003-2.44,2.91003-5.60999,3.40002-7.79999c0.89001-4.01001,1.17999-5.47998,1.17999-5.47998L30.16003,9.17991z" style="fill:#8FC62E;"/><path d="M13.96001,37.96989c-0.07001,0.18005-0.15997,0.36005-0.28998,0.5     c-0.19,0.20001-0.45001,0.30005-0.71002,0.34003c-0.01996,0-0.03998,0.01001-0.06,0.01001     c-0.23999,0.02997-0.48999,0.02997-0.72998-0.01001c-0.20001-0.02997-0.40002-0.08002-0.59003-0.15997     c-0.32001-0.13-0.60999-0.32001-0.88-0.53003c-0.00995-0.01001-0.00995-0.01001-0.01996-0.02002     c-0.22003-0.16998-0.44-0.35999-0.60004-0.57996c-0.06-0.07001-0.10999-0.14001-0.14996-0.22003     c-0.12-0.21997-0.17999-0.44-0.19-0.67999v-0.01001c-0.01001-0.33997,0.07996-0.69,0.26001-0.97998     c-0.03003,0.25,0.02997,0.5,0.15997,0.71002c0.05,0.07998,0.25032,0.01574,0.32001,0.08089     c0.20907,0.19546,0.35501,0.45158,0.64002,0.42906c-0.02002,0.13,0.00995,0.26001,0.07996,0.37     c0.17999,0.05005,0.35004,0.09003,0.53003,0.13c0.11339,0.12534,0.32334,0.08076,0.43673,0.20609     c0.07661,0.08467,0.16321,0.18714,0.23982,0.27179c0.06,0.07001,0.06192,0.21383,0.15189,0.22383     c0.09998,0.01001,0.24572-0.10191,0.33575-0.11192c0.04498-0.00497,0.15672,0.13359,0.2718,0.13589     c0.11508,0.0023,0.23351-0.13166,0.30377-0.15189C13.64805,37.87241,13.77547,38.00347,13.96001,37.96989z" style="fill:#E5DCA8;"/><path d="M27.42004,19.40989c-0.09003,0.25-0.19,0.5-0.28003,0.74005c-0.31,0.77997-0.62,1.44995-0.94,1.94     c-2.02997,1.06995-3.84998,2.22998-5.44995,3.37994c0.08997-0.12994,0.51996-0.81995,1.09998-1.81995     c0.02997-0.02002,0.06-0.04004,0.09003-0.06c1.13995-0.78003,2.27997-1.55005,3.35999-2.41003     C26.03002,20.6099,26.72002,20.00993,27.42004,19.40989z" style="fill:#ADCE46;"/><path d="M35.27001,17.67991c-0.56,0.29999-1.12,0.64001-1.64001,1.03998     c-0.12994,0.10004-0.31995,0.27002-0.47998,0.42004c-2.54999,0.82996-4.85999,1.84998-6.95001,2.95001     c0.42999-0.66003,0.86005-1.66003,1.27002-2.82001c0.27002-0.20001,0.73999-0.51001,1.33002-0.89001     c0.07996,0.39001-0.04999,0.96002-0.13,1.29999C30.85003,18.93992,33.05004,18.27995,35.27001,17.67991z" style="fill:#6BA835;"/><path d="M32.09002,15.84989c-0.20001,0.36005-0.39996,0.66003-0.59998,0.91003     c-1.83002,1.06-3.41003,2.08002-4.02002,2.51001c0.31-0.87,0.60999-1.83002,0.89001-2.81     c0-0.01001,0.01001-0.02002,0.01001-0.03003c0.14996-0.27997,0.37-0.71002,0.56-1.09998     c0.14996-0.29999,0.32996-0.64001,0.51001-1.01001c0,0.01001,0,0.01001,0,0.02002     c-0.07001,0.98999-0.15002,1.97998-0.22003,2.97998C30.15002,16.76994,31.11004,16.29991,32.09002,15.84989z" style="fill:#559928;"/><path d="M36.25005,14.07994c-0.22003,0.15997-0.41003,0.32001-0.55005,0.46997     c-1.35999,0.62-2.85999,1.42999-4.20996,2.21002c0.73999-0.89001,1.47998-2.66998,2.04999-4.29004c0,0,0,0,0.01001-0.00995     c0.06-0.04004,0.31-0.21002,0.67999-0.46002c-0.03998,0.25-0.15002,0.5-0.22003,0.72998     c-0.09998,0.36005-0.19995,0.72003-0.29999,1.08002c-0.06,0.20001-0.12,0.40997-0.17999,0.60999     c-0.02002,0.07001-0.10999,0.57001-0.16998,0.59003C34.32,14.69993,35.28002,14.37992,36.25005,14.07994z" style="fill:#4F9124;"/><path d="M28.31041,10.19278c-0.32833,1.45572-0.65666,2.91143-0.98499,4.36715     c-0.09949,0.03934-0.21481-0.03425-0.25945-0.13148s-0.03732-0.20932-0.02855-0.31594     c0.09121-1.10901,0.2419-2.21241,0.41706-3.31129c0.05577-0.34986,0.13143-0.74282,0.38197-1.01082     C28.22314,9.37677,28.40214,9.7861,28.31041,10.19278z" style="fill:#B1D752;"/><path d="M34.61218,15.94201c-0.10069,0.04622-0.22028,0.09217-0.31733,0.03871     c-0.0369-0.02033,1.11748-0.9765,1.23899-1.04984c0.48517-0.29284,0.99371-0.44858,1.52695-0.62261     c0.1712-0.05587,0.86013-0.45507,0.99791-0.24322c0.23518,0.3616-1.11817,0.80827-1.31506,0.89864     C36.03316,15.2898,35.32267,15.6159,34.61218,15.94201z" style="fill:#82C14C;"/><path d="M33.04227,16.66468c-0.00331,0.02048-0.00472,0.04292,0.00626,0.06051     c0.01394,0.02231,0.0428,0.02936,0.06891,0.03253c0.17655,0.02141,0.76142-0.25433,0.54224-0.48872     C33.44545,16.0399,33.07122,16.48539,33.04227,16.66468z" style="fill:#82C14C;"/></g><g id="Layer_1_43_"><g><path d="      M14.5785,36.3317c8.5017-12.9245,24.4238-16.0204,24.4238-16.0204l-0.6388-2.5555      c-17.7896,3.5874-26.5369,16.3153-26.6352,16.5611c-0.1816,0.4538-0.8686,0.5393-1.272,0.8153      c-0.6706,0.4589-0.9087,1.449-0.5201,2.1627c0.1815,0.3332,0.471,0.5938,0.7715,0.8254      c0.2704,0.2084,0.5568,0.4004,0.8727,0.5299c0.4147,0.1701,0.8752,0.2272,1.319,0.1637      c0.2845-0.0407,0.5737-0.1375,0.7729-0.3447c0.174-0.1809,0.2616-0.4258,0.3444-0.6627      C14.2091,37.2556,14.2579,36.8192,14.5785,36.3317z" style="fill:none;stroke:#303030;stroke-width:0.5;stroke-linecap:round;stroke-linejoin:round;stroke-miterlimit:10;"/><path d="      M20.7378,25.4875c0.0443-0.0324,4.5873-7.3513,5.4836-11.3665c0.8962-4.0152,1.183-5.485,1.183-5.485l2.7605,0.5377      c0,0-2.0363,9.9401-3.9579,12.9108" style="fill:none;stroke:#303030;stroke-width:0.5;stroke-linecap:round;stroke-linejoin:round;stroke-miterlimit:10;"/><path d="      M27.4485,19.348c0.065-0.1821,7.4486-5.0119,10.926-5.7647l1.0755,2.5812c0,0-3.8359,0.7528-6.343,2.9829" style="fill:none;stroke:#303030;stroke-width:0.5;stroke-linecap:round;stroke-linejoin:round;stroke-miterlimit:10;"/><path d="      M28.3701,16.4656c0.0665-0.2316,3.5873-6.7541,3.5873-8.2957l2.6529,0.9321c0,0-1.5796,5.7839-3.12009,7.66" style="fill:none;stroke:#303030;stroke-width:0.5;stroke-linecap:round;stroke-linejoin:round;stroke-miterlimit:10;"/><path d="      M33.5439,12.466c0,0,3.9702-2.7187,4.43631-2.7904l1.4698,2.5812c0,0-2.8325,1.3181-3.7465,2.2903" style="fill:none;stroke:#303030;stroke-width:0.5;stroke-linecap:round;stroke-linejoin:round;stroke-miterlimit:10;"/><line style="fill:none;stroke:#303030;stroke-width:0.5;stroke-linecap:round;stroke-linejoin:round;stroke-miterlimit:10;" x1="9.7492" x2="8.55" y1="36.60431" y2="37.265"/><path d="      M9.332,38.12531c0.2203-0.2044,0.5052-0.431,0.7484-0.6075" style="fill:none;stroke:#303030;stroke-width:0.5;stroke-linecap:round;stroke-linejoin:round;stroke-miterlimit:10;"/><path d="      M10.1924,38.7215c0.15-0.1936,0.3372-0.4294,0.4872-0.623" style="fill:none;stroke:#303030;stroke-width:0.5;stroke-linecap:round;stroke-linejoin:round;stroke-miterlimit:10;"/><path d="      M11.3346,38.5347c-0.0535,0.3142-0.1392,0.6762-0.2296,0.9819" style="fill:none;stroke:#303030;stroke-width:0.5;stroke-linecap:round;stroke-linejoin:round;stroke-miterlimit:10;"/><path d="      M12.1705,38.8117c0,0.2731,0,0.585,0,0.8581" style="fill:none;stroke:#303030;stroke-width:0.5;stroke-linecap:round;stroke-linejoin:round;stroke-miterlimit:10;"/><path d="      M12.9646,38.808c0.0733,0.2922,0.1829,0.7298,0.2561,1.0221" style="fill:none;stroke:#303030;stroke-width:0.5;stroke-linecap:round;stroke-linejoin:round;stroke-miterlimit:10;"/><path d="      M16.0936,31.1494c0.8163-1.0311,1.7658-1.9566,2.8174-2.7463" style="fill:none;stroke:#303030;stroke-width:0.5;stroke-linecap:round;stroke-linejoin:round;stroke-miterlimit:10;"/><path d="      M14.5825,32.7747c0.2018-0.2183,0.4154-0.4258,0.6394-0.6213" style="fill:none;stroke:#303030;stroke-width:0.5;stroke-linecap:round;stroke-linejoin:round;stroke-miterlimit:10;"/><path d="      M32.9935,8.534c0,0-0.2794,2.0477-0.8965,3.0208" style="fill:none;stroke:#303030;stroke-width:0.5;stroke-linecap:round;stroke-linejoin:round;stroke-miterlimit:10;"/><path d="      M38.9762,11.4247c0,0-2.2273,0.9608-2.6782,1.4354" style="fill:none;stroke:#303030;stroke-width:0.5;stroke-linecap:round;stroke-linejoin:round;stroke-miterlimit:10;"/><path d="      M38.4445,10.491c0,0-1.4582,0.7562-1.5887,0.9337" style="fill:none;stroke:#303030;stroke-width:0.5;stroke-linecap:round;stroke-linejoin:round;stroke-miterlimit:10;"/></g></g></g></g></svg>