<?xml version="1.0" ?><svg id="Слой_1" style="enable-background:new 0 0 512 512;" version="1.1" viewBox="0 0 512 512" xml:space="preserve" xmlns="http://www.w3.org/2000/svg" xmlns:xlink="http://www.w3.org/1999/xlink"><style type="text/css">
	.st0{fill:#473421;}
	.st1{fill:#594F75;}
	.st2{fill:#4D4667;}
	.st3{fill:#FFFFFF;}
</style><g><g><path class="st0" d="M237.8,114.2l-9.5-0.3c0-0.9,2.5-89.6-36.1-105.1l3.5-8.8C240.4,17.9,237.9,110.3,237.8,114.2z    " id="XMLID_4_"/></g><g><path class="st1" d="M232.3,511.8c0.8,0,1.5,0.2,2.3,0.2c86.5,0,156.6-92.7,156.6-207.1    c0-114.3-70.1-207.1-156.6-207.1c-0.6,0-1.1,0.1-1.6,0.1C164.7,186.3,73.5,357.8,232.3,511.8z" id="XMLID_3_"/><path class="st2" d="M78,304.9c0,113.3,68.9,205.3,154.3,206.9C73.5,357.8,164.7,186.3,233,98    C147.2,99.2,78,191.3,78,304.9z" id="XMLID_2_"/></g><path class="st3" d="M329.7,184.3c-6.1,6.5-24.5-0.8-41-16.4c-16.6-15.5-25-33.4-18.9-39.9c6.1-6.5,24.5,0.8,41,16.4   C327.3,160,335.8,177.8,329.7,184.3z" id="XMLID_1_"/></g></svg>