<?xml version="1.0" encoding="utf-8"?>
<!-- Generator: Adobe Illustrator 16.0.0, SVG Export Plug-In . SVG Version: 6.00 Build 0)  -->
<!DOCTYPE svg PUBLIC "-//W3C//DTD SVG 1.1//EN" "http://www.w3.org/Graphics/SVG/1.1/DTD/svg11.dtd">
<svg version="1.1" id="Layer_1" xmlns="http://www.w3.org/2000/svg" xmlns:xlink="http://www.w3.org/1999/xlink" x="0px" y="0px"
	 width="377px" height="400px" viewBox="0 0 377 400" enable-background="new 0 0 377 400" xml:space="preserve">
<line fill="none" stroke="#432918" stroke-width="12" stroke-miterlimit="10" x1="-11" y1="34" x2="99" y2="90"/>
<line fill="none" stroke="#662A12" stroke-width="14" stroke-miterlimit="10" x1="-4" y1="23" x2="102" y2="78"/>
<path fill="#52A04F" d="M288,201c-29.55,20.26-94.101,39.235-130.73,29.186c-51-14-80.38-89.99-63-137s87.97-81.05,138-59
	C283.069,56.575,305.5,130.72,300,176"/>
<path fill="#A34B33" d="M318,189l-16,5l4.08,11.56L292,208l-4,16l-14-16c12.98-8.9,16.86-16.79,22.17-31.15
	c2.41-6.53,4.06-13.54,4.95-20.85l19.88,4l-11,16L318,189z"/>
<path fill="#40873C" d="M300,162.58c-0.9,4.36-2.101,8.57-3.591,12.6c-17.38,47.011-86.27,65.48-139,51c-51-14-80.38-89.989-63-137
	c0.15-0.41,0.311-0.83,0.471-1.239C85.6,134.92,114.229,200.3,161.159,213.18C213.739,227.62,282.39,209.3,300,162.58z"/>
<path fill="none" stroke="#006633" stroke-width="12" stroke-miterlimit="10" d="M99,92c0,54.168,72.01,98,161,98"/>
<path fill="none" stroke="#006633" stroke-width="12" stroke-miterlimit="10" d="M286,160c6.973-26.625-53-123-180-80"/>
<path fill="none" stroke="#037F3E" stroke-width="12" stroke-miterlimit="10" d="M238.59,134.166
	c3.269-15.26-50.758-52.438-106.102-41.162"/>
<path fill="none" stroke="#037F3E" stroke-width="12" stroke-miterlimit="10" d="M129.185,171.574
	c21.116,16.968,27.93,34.816,70.721,32.307"/>
<circle fill="#662A12" cx="350" cy="258" r="11"/>
<circle fill="#C6644E" cx="296" cy="374" r="11"/>
<circle fill="#C6644E" cx="215" cy="319" r="11"/>
<circle fill="#C6644E" cx="333" cy="227" r="11"/>
<circle fill="#C6644E" cx="293" cy="270" r="11"/>
<circle fill="#662A12" cx="251.5" cy="282.5" r="13.5"/>
<circle fill="#662A12" cx="319" cy="333" r="12"/>
<circle fill="#662A12" cx="261" cy="330" r="12"/>
</svg>
