<?xml version="1.0" ?><svg id="Layer_1" style="enable-background:new 0 0 100 100;" version="1.1" viewBox="0 0 100 100" xml:space="preserve" xmlns="http://www.w3.org/2000/svg" xmlns:xlink="http://www.w3.org/1999/xlink"><g><g><path d="M75.906,25.374c-2.253-3.436-10.137-9.164-18.021-9.164c-6.758,0-18.021,3.436-18.021,3.436    s-7.884,1.145-9.011,4.582c0,0-3.379-2.291-4.506,0c-1.126,2.291,0,2.291-1.126,4.581c-1.126,2.291-7.885,6.873-7.885,10.309    c0,0-2.252,3.436-2.252,8.018c0,4.582,0,9.163,1.126,11.454c1.126,2.291,5.632,13.745,11.263,17.182    c3.456,2.108,6.906,3.352,9.06,4c2.681,2.703,5.341,4.018,6.709,4.018c3.379,0,5.631-1.146,5.631-1.146s1.126,0,9.011,0    c7.884,0,15.769-8.018,15.769-8.018c1.126,0,5.632-8.018,5.632-8.018c2.253-1.146,4.505-9.163,4.505-10.309    c0-1.145,1.126-9.163,1.126-13.745C84.916,37.973,78.158,28.809,75.906,25.374z" style="fill:#9E2A57;"/><path d="M43.242,84.916c-1.889,0-4.734-1.621-7.305-4.149c-2.314-0.714-5.679-1.977-9.05-4.035    c-5.174-3.156-9.309-12.371-11.074-16.305c-0.261-0.581-0.466-1.041-0.614-1.34c-1.242-2.526-1.242-7.104-1.242-11.951    c0-4.161,1.712-7.414,2.268-8.36c0.227-2.531,2.898-5.142,5.268-7.458c1.173-1.146,2.385-2.331,2.717-3.006    c0.448-0.91,0.448-1.281,0.448-1.794c0-0.627,0-1.408,0.679-2.788c0.39-0.794,1.025-1.327,1.834-1.542    c1.124-0.299,2.367,0.102,3.233,0.504c2.19-2.959,8.14-3.986,9.212-4.149c1.113-0.336,11.65-3.461,18.269-3.461    c8.127,0,16.371,5.719,18.963,9.672c0.319,0.487,0.729,1.088,1.198,1.777c2.991,4.393,7.997,11.747,7.997,16.022    c0,3.116-0.506,7.748-0.841,10.813c-0.146,1.343-0.285,2.612-0.285,2.933c0,1.007-1.985,9.159-4.793,11.114    c-3.573,6.329-5.094,7.854-5.889,8.222c-1.386,1.348-8.747,8.134-16.349,8.134h-8.763C48.391,84.09,46.215,84.916,43.242,84.916z     M28.023,24.334c-0.1,0-0.194,0.01-0.277,0.033c-0.128,0.034-0.262,0.101-0.388,0.358c-0.448,0.91-0.448,1.281-0.448,1.794    c0,0.627,0,1.407-0.679,2.788c-0.503,1.022-1.735,2.228-3.164,3.623c-1.943,1.899-4.605,4.5-4.605,6.189v0.336l-0.185,0.282    c-0.019,0.03-2.067,3.234-2.067,7.401c0,4.376,0,8.902,1.01,10.957c0.155,0.316,0.373,0.801,0.648,1.412    c1.68,3.744,5.614,12.512,10.191,15.305c3.302,2.014,6.608,3.223,8.798,3.882l0.274,0.083l0.201,0.203    c2.663,2.685,5.038,3.685,5.909,3.685c3.038,0,5.103-1.015,5.124-1.025l0.238-0.119l9.28-0.002c7.311,0,14.889-7.605,14.965-7.682    l0.331-0.335l0.232-0.001c0.839-0.713,3.139-4.329,4.889-7.443l0.167-0.298l0.305-0.155c1.614-0.82,3.856-8.026,3.889-9.308    c0-0.42,0.102-1.377,0.299-3.174c0.329-3.017,0.827-7.575,0.827-10.568c0-3.58-4.948-10.849-7.607-14.754    c-0.477-0.701-0.894-1.315-1.219-1.809c-2.037-3.106-9.486-8.655-17.08-8.655c-6.51,0-17.581,3.353-17.692,3.387l-0.166,0.037    c-2.783,0.407-7.443,1.804-8.103,3.818l-0.465,1.42L30.22,25.16C29.662,24.785,28.687,24.334,28.023,24.334z M73.308,73.579    L73.308,73.579L73.308,73.579z M73.653,73.5h-0.001H73.653z"/></g><g><path d="M43.242,84.916c-3.673,0-15.769-8.207-15.769-26.326c0-6.78,1.518-13.972,4.513-21.375l0.422-1.044l2.088,0.845    l-0.422,1.044c-2.885,7.134-4.348,14.041-4.348,20.53c0,16.609,10.744,24.073,13.516,24.073c3.038,0,5.103-1.015,5.124-1.025    l1.004-0.502l1.014,2.002l-1.001,0.509C49.283,83.7,46.85,84.916,43.242,84.916z"/></g><g><g><path d="M75.906,25.374c-2.253-3.436-10.137-9.164-18.021-9.164c-6.758,0-18.021,3.436-18.021,3.436     s-6.715,0.981-8.63,3.839l0.746,3.034c0,0,2.253-1.145,3.379,0c1.126,1.146-1.126,2.291,0,4.581c1.126,2.291,0,3.436,3.379,4.582     c3.379,1.145,0,8.018,0,8.018s0,1.146,2.253,2.291c2.253,1.146,3.379,3.436,4.505,3.436c1.126,0,5.632-2.291,6.758-1.146     c1.126,1.146,2.252,2.291,3.379,4.582c1.126,2.291,4.506,5.727,4.506,5.727l3.379,1.145v3.436c0,0,1.126,1.146,1.126,2.291     c0,1.146,0,1.146,1.126,2.291c0.819,0.833,2.828-0.15,3.864-0.749c0.302-0.175,0.672-0.016,0.782,0.32     c0.141,0.429,0.422,1.003,0.986,1.575c1.126,1.146-2.253,3.436-2.253,4.582c0,0.604,0.937,2.159,1.825,3.497     c1.658-1.319,2.68-2.352,2.68-2.352c1.126,0,5.632-8.018,5.632-8.018c2.253-1.146,4.505-9.163,4.505-10.309     c0-1.145,1.126-9.163,1.126-13.745C84.916,37.973,78.158,28.809,75.906,25.374z" style="fill:#6B3068;"/><path d="M70.713,78.624L70.034,77.6c-1.769-2.667-2.013-3.556-2.013-4.119c0-0.878,0.652-1.646,1.408-2.534     c0.32-0.377,0.885-1.041,1.038-1.395c-0.352-0.383-0.645-0.805-0.865-1.248c-2.139,1.112-3.7,1.195-4.638,0.239     c-1.286-1.308-1.45-1.564-1.45-3.08c0-0.507-0.543-1.233-0.806-1.505l-0.317-0.327l-0.003-3.088l-2.868-0.972l-0.188-0.191     c-0.143-0.146-3.52-3.593-4.714-6.019c-1.046-2.127-2.077-3.177-3.17-4.288c-0.47-0.187-2.66,0.553-3.593,0.869     c-1.152,0.39-1.829,0.611-2.364,0.611c-1.035,0-1.775-0.753-2.633-1.625c-0.666-0.677-1.42-1.444-2.383-1.933     c-2.73-1.389-2.869-2.989-2.869-3.296v-0.261l0.115-0.235c0.771-1.575,1.788-4.573,1.23-5.913     c-0.117-0.282-0.29-0.444-0.581-0.542c-2.73-0.926-3.181-2.069-3.52-3.583c-0.109-0.485-0.221-0.986-0.508-1.569     c-0.82-1.667-0.296-2.983,0.018-3.768c0.08-0.202,0.19-0.479,0.192-0.574c-0.384-0.335-1.539,0.002-2.071,0.269l-1.261,0.629     l-1.205-4.883l0.276-0.413c2.065-3.082,8.264-4.151,9.318-4.313c1.112-0.336,11.65-3.461,18.27-3.461     c8.127,0,16.371,5.719,18.963,9.672c0.319,0.486,0.729,1.088,1.198,1.777c2.991,4.393,7.997,11.747,7.997,16.022     c0,3.116-0.506,7.748-0.841,10.813c-0.146,1.343-0.285,2.612-0.285,2.933c0,1.007-1.985,9.159-4.793,11.114     c-3.579,6.339-5.098,7.859-5.893,8.223c-0.396,0.382-1.298,1.221-2.557,2.222L70.713,78.624z M70.293,73.513     c0.057,0.181,0.255,0.675,0.944,1.791c1.008-0.858,1.608-1.462,1.615-1.47l0.331-0.333l0.23-0.001     c0.839-0.713,3.139-4.329,4.889-7.443l0.167-0.298l0.305-0.155c1.614-0.82,3.856-8.026,3.889-9.308     c0-0.42,0.102-1.377,0.299-3.174c0.329-3.017,0.827-7.575,0.827-10.568c0-3.58-4.948-10.849-7.607-14.754     c-0.477-0.701-0.894-1.315-1.219-1.809c-2.037-3.106-9.486-8.655-17.08-8.655c-6.51,0-17.581,3.353-17.692,3.387l-0.165,0.037     c-1.625,0.239-5.935,1.22-7.57,2.989l0.318,1.289c1.011-0.251,2.392-0.32,3.385,0.691c1.043,1.06,0.575,2.233,0.297,2.934     c-0.272,0.68-0.468,1.172-0.089,1.94c0.405,0.824,0.56,1.515,0.684,2.07c0.227,1.011,0.302,1.351,2.046,1.942     c0.903,0.306,1.573,0.933,1.938,1.813c0.977,2.351-0.522,6.083-1.1,7.366c0.141,0.201,0.534,0.67,1.563,1.194     c1.29,0.656,2.221,1.602,2.967,2.362c0.371,0.377,0.879,0.894,1.085,0.959c0.172-0.02,0.988-0.297,1.584-0.498     c2.191-0.743,4.676-1.583,5.92-0.317c1.171,1.191,2.381,2.422,3.587,4.875c0.805,1.638,3.088,4.178,4.113,5.244l3.887,1.318     v3.821c0.432,0.535,1.126,1.573,1.126,2.714c0,0.684,0,0.684,0.803,1.5c0.152,0.049,1.015-0.077,2.498-0.934     c0.432-0.249,0.949-0.292,1.414-0.114c0.476,0.182,0.841,0.567,1.002,1.058c0.091,0.277,0.289,0.7,0.718,1.137     c1.392,1.415-0.082,3.149-1.058,4.297C70.852,72.752,70.423,73.257,70.293,73.513z M73.308,73.579L73.308,73.579L73.308,73.579z      M73.653,73.5h-0.001H73.653z"/></g></g><g><path d="M33.417,59.007l-1.874-1.249l0.625-0.937c0.131-0.197,3.277-4.885,8.522-9.452l0.849-0.739l1.48,1.698l-0.85,0.74    c-5.005,4.358-8.095,8.955-8.126,9.001L33.417,59.007z"/></g><g><path d="M37.594,72.316l-2.236-0.008V71.19c0-0.451,0.212-11.135,18.69-19.356l1.029-0.458l0.916,2.059l-1.03,0.458    C37.947,61.463,37.611,71.102,37.61,71.198L37.594,72.316z"/></g><g><path d="M40.858,77.359l-1.456-1.718l0.859-0.728c0.278-0.235,6.842-5.794,10.233-8.092c3.157-2.139,7.531-8.782,7.575-8.849    l0.617-0.942l1.884,1.235l-0.618,0.942c-0.188,0.288-4.669,7.088-8.193,9.478c-3.29,2.23-9.974,7.888-10.041,7.945L40.858,77.359z    "/></g><g><path d="M51.126,70.026H50v-2.253h1.122c0.095-0.002,5.376-0.13,11.666-5.46l0.859-0.728l1.456,1.718l-0.859,0.728    C57.252,69.958,51.373,70.026,51.126,70.026z"/></g><g><path d="M48.06,79.431l-0.556-2.183l1.092-0.278c0.044-0.011,4.503-1.148,7.8-2.265c2.561-0.868,7.054-5.056,8.569-6.596    l0.79-0.803l1.606,1.58l-0.79,0.803c-0.238,0.241-5.86,5.932-9.452,7.149c-3.382,1.146-7.783,2.268-7.969,2.315L48.06,79.431z"/></g><g><rect height="2.252" width="9.011" x="56.758" y="74.646"/></g><g><path d="M34.555,49.84l-1.882-1.235l0.617-0.942c0.098-0.151,2.445-3.701,4.936-4.968l1.004-0.51l1.021,2.008l-1.004,0.511    c-1.623,0.825-3.491,3.308-4.074,4.195L34.555,49.84z"/></g><g><path d="M31.965,40.711l-0.79-0.803c-2.504-2.545-2.576-8.174-2.576-8.808v-1.126l2.252,0l0.001,1.126    c0.002,1.467,0.352,5.625,1.929,7.229l0.79,0.803L31.965,40.711z"/></g><g><path d="M27.46,57.892l-0.79-0.803c-3.41-3.468-5.703-9.005-7.025-13.038c-1.205-3.674-0.084-9.486-0.035-9.732l0.218-1.105    l2.21,0.434l-0.217,1.105c-0.011,0.054-1.056,5.483-0.035,8.596c1.021,3.115,3.222,8.837,6.49,12.161l0.79,0.803L27.46,57.892z"/></g><g><path d="M28.812,68.187l-0.895-0.683c-4.196-3.2-7.345-9.911-8.859-13.135c-0.189-0.403-0.35-0.744-0.48-1.008    c-1.031-2.096-3.15-4.268-3.171-4.29l-0.789-0.804l1.605-1.578l0.789,0.802c0.097,0.099,2.394,2.448,3.587,4.875    c0.134,0.274,0.3,0.627,0.496,1.045c1.438,3.063,4.43,9.436,8.187,12.302l0.895,0.683L28.812,68.187z"/></g><g><path d="M45,39.488l-1.02-2.007l1.004-0.511c1.575-0.801,2.538-1.748,3.557-2.752c1.729-1.703,3.518-3.463,8.028-4.228    c6.562-1.111,13.346-2.261,15.447-3.33c2.372-1.207,3.656-1.268,3.889-1.268h1.126v2.253h-1.126c0.014,0-0.959,0.052-2.869,1.024    c-2.406,1.224-9.054,2.35-16.091,3.542c-3.812,0.646-5.208,2.021-6.825,3.612c-1.045,1.029-2.23,2.194-4.116,3.154L45,39.488z"/></g><g><path d="M39.876,30.402l-1.606-1.58l0.79-0.802c0.146-0.15,3.654-3.675,8.41-4.884c4.386-1.115,6.519-2.2,8.777-3.348    c2.379-1.21,9.552-1.861,10.361-1.932l1.123-0.097l0.195,2.243L66.805,20.1c-2.081,0.181-7.849,0.838-9.536,1.696    c-2.268,1.153-4.614,2.347-9.244,3.524c-4.152,1.056-7.326,4.248-7.358,4.28L39.876,30.402z"/></g><g><path d="M51.14,43.002l-1.606-1.58l0.79-0.803c0.146-0.15,3.654-3.674,8.41-4.883c2.697-0.685,4.368-0.253,5.587,0.063    c0.993,0.256,1.423,0.349,2.064,0.024c2.322-1.181,9.389-4.771,14.304-3.524l1.092,0.278l-0.556,2.183l-1.091-0.278    c-4.097-1.042-10.592,2.262-12.729,3.349c-1.426,0.725-2.555,0.432-3.65,0.147c-1.093-0.282-2.33-0.604-4.468-0.06    c-4.153,1.056-7.327,4.248-7.359,4.28L51.14,43.002z"/></g><g><path d="M57.892,47.577l-1.597-1.576l0.786-0.8c0.051-0.052,1.283-1.29,3.672-2.506c1.3-0.661,2.405-3.413,2.796-4.992    l0.271-1.092l2.186,0.538l-0.27,1.092c-0.128,0.52-1.325,5.122-3.962,6.463c-2.035,1.035-3.079,2.069-3.089,2.08L57.892,47.577z"/></g><g><path d="M43.75,32.568l-0.849-2.086l1.043-0.425c2.024-0.825,5.491-2.65,6.171-4.035c0.644-1.309,1.313-1.989,1.757-2.44    c0.381-0.387,0.381-0.411,0.381-0.499v-1.126h2.252v1.126c0,1.034-0.546,1.589-1.027,2.078c-0.403,0.409-0.858,0.873-1.341,1.855    c-1.278,2.6-6.728,4.877-7.345,5.128L43.75,32.568z"/></g><g><path d="M61.777,54.371l-2.022-0.994l0.497-1.011c1.275-2.594,3.823-5.211,6.642-5.211c1.096,0,1.825-0.813,2.812-2.054    c0.307-0.386,0.6-0.75,0.891-1.046c1.885-1.918,6.832-4.87,13.38-3.757l1.111,0.188l-0.377,2.221l-1.11-0.188    c-7.061-1.191-11.224,2.939-11.398,3.116c-0.241,0.245-0.48,0.549-0.734,0.869c-0.976,1.225-2.31,2.903-4.575,2.903    c-1.739,0-3.679,2.037-4.62,3.953L61.777,54.371z"/></g><g><path d="M66.895,57.426h-1.126v-2.252h1.121c0.147-0.003,2.839-0.095,4.696-2.928c2.037-3.109,2.068-8.493,2.068-8.546    l0.001-1.126l2.252,0.001V43.7c0,0.247-0.028,6.106-2.438,9.781C70.912,57.381,67.058,57.426,66.895,57.426z"/></g><g><path d="M69.898,56.7l-1.17-1.922l0.96-0.586c0.255-0.157,6.293-3.784,10.229-1.117c0.719,0.488,1.102,0.347,1.227,0.301    c0.921-0.347,1.661-2.145,1.876-2.961l0.285-1.087l2.177,0.564L85.2,50.981c-0.096,0.371-1.001,3.65-3.259,4.502    c-0.729,0.275-1.891,0.405-3.289-0.543c-2.267-1.54-6.394,0.327-7.793,1.175L69.898,56.7z"/></g><g><path d="M69.78,63.541l-1.021-2.008l1.004-0.511c1.679-0.854,4.613-2.483,5.339-3.222c0.816-0.83,1.753-2.55,2.045-3.143    l0.497-1.01l2.022,0.994l-0.497,1.011c-0.049,0.1-1.221,2.468-2.461,3.729c-1.22,1.241-5.446,3.408-5.924,3.651L69.78,63.541z"/></g><g><path d="M74.074,66.891l-0.724-2.133l1.067-0.362c0.033-0.011,3.331-1.133,5.483-2.229l1.004-0.51l1.021,2.008l-1.004,0.511    c-2.298,1.169-5.64,2.306-5.781,2.354L74.074,66.891z"/></g></g></svg>