<?xml version="1.0" ?><svg id="color" viewBox="0 0 256 256" xmlns="http://www.w3.org/2000/svg"><title/><path d="M72.8754,197.7708c1.513-20.7233-12.8589-33.9859-12.8589-33.9859S45.645,177.0475,47.1575,197.7708c.7439,10.1844,7.0173,13.6165,12.9835,13.5258C66.314,211.2031,72.1836,207.2491,72.8754,197.7708Z" style="fill:#3f3d3d"/><path d="M34.7186,153.387c20.7227,1.5125,33.9856-12.8592,33.9856-12.8592s-13.2629-14.3717-33.9856-12.8589c-10.1841.7434-13.6168,7.0176-13.526,12.983C21.286,146.8252,25.24,152.6947,34.7186,153.387Z" style="fill:#3f3d3d"/><path d="M116.4725,172.4936c-14.1925-15.1749-33.6875-13.62-33.6875-13.62s-.0123,19.5564,16.2341,32.5088c7.9847,6.3658,14.7635,4.0877,18.7452-.3556C121.885,186.4289,122.9651,179.4347,116.4725,172.4936Z" style="fill:#fcdc97"/><path d="M80.0458,126.6048C89.457,145.13,108.6141,149.06,108.6141,149.06s5.4532-18.7806-6.549-35.7422c-5.898-8.3356-13.0431-8.033-18.1038-4.8734C78.724,111.714,75.7408,118.132,80.0458,126.6048Z" style="fill:#3f3d3d"/><path d="M143.6749,74.9972C124.56,66.8531,119.35,48.0032,119.35,48.0032s18.3708-6.7034,36.1018,4.1307c8.713,5.3244,8.8924,12.4738,6.08,17.7359C158.6211,75.3147,152.418,78.7221,143.6749,74.9972Z" style="fill:#3f3d3d"/><path d="M109.3086,71.6349C101.1639,90.75,82.3145,95.96,82.3145,95.96s-6.7042-18.3713,4.13-36.1013c5.3249-8.7135,12.4738-8.8924,17.7359-6.08C109.626,56.6885,113.0329,62.8914,109.3086,71.6349Z" style="fill:#3f3d3d"/><path d="M124.8761,139.8089c14.4961-14.8852,33.9555-12.9374,33.9555-12.9374s-.3819,19.5524-16.8873,32.1745c-8.1108,6.2033-14.8425,3.7882-18.7338-.7342C119.1828,153.6322,118.245,146.6173,124.8761,139.8089Z" style="fill:#3f3d3d"/><path d="M64.3928,87.2114c12.1586,16.8491,6.8809,35.68,6.8809,35.68s-19.1931-3.7523-28.7762-22.1885c-4.71-9.06-1.1687-15.2741,3.958-18.3264C51.7589,79.2178,58.831,79.5049,64.3928,87.2114Z" style="fill:#fcdc97"/><path d="M155.2792,209.6777c1.513-20.7227-12.8589-33.9853-12.8589-33.9853s-14.3714,13.2626-12.8589,33.9853c.7434,10.1847,7.0173,13.6173,12.9835,13.5266C148.7179,223.1105,154.5874,219.1563,155.2792,209.6777Z" style="fill:#3f3d3d"/><path d="M123.44,114.0064c20.7227,1.5128,33.9856-12.8592,33.9856-12.8592S144.1632,86.7755,123.44,88.2883c-10.1847.7434-13.6173,7.0176-13.526,12.983C110.0074,107.4445,113.9621,113.3144,123.44,114.0064Z" style="fill:#fcdc97"/><path d="M181.2425,160.5668c-14.1931-15.175-33.6875-13.6206-33.6875-13.6206s-.0129,19.5562,16.2341,32.5091c7.9841,6.3656,14.763,4.0872,18.7456-.3555C186.655,174.5021,187.7346,167.5079,181.2425,160.5668Z" style="fill:#fcdc97"/><path d="M166.58,126.6048c9.4113,18.5247,28.5683,22.4552,28.5683,22.4552S200.601,130.28,188.6,113.3178c-5.8985-8.3356-13.0437-8.033-18.1043-4.8734C165.2582,111.714,162.2756,118.132,166.58,126.6048Z" style="fill:#3f3d3d"/><path d="M208.3306,99.063c-19.1152-8.1442-24.3251-26.9938-24.3251-26.9938s18.3713-6.7031,36.1018,4.13c8.7135,5.3247,8.8913,12.4738,6.08,17.7359C223.2773,99.38,217.0737,102.7884,208.3306,99.063Z" style="fill:#3f3d3d"/><path d="M184.9029,54.1322c-8.1437,19.1157-26.9941,24.3251-26.9941,24.3251S151.2058,60.086,162.04,42.3561c5.3249-8.7135,12.4733-8.8921,17.7358-6.08C185.22,39.186,188.6283,45.3891,184.9029,54.1322Z" style="fill:#fcdc97"/><path d="M202.6587,164.238c14.4971-14.8852,33.9555-12.9374,33.9555-12.9374s-.3819,19.5527-16.8872,32.1747c-8.1115,6.2031-14.8425,3.7882-18.7344-.7342C196.9659,178.0616,196.0281,171.0464,202.6587,164.238Z" style="fill:#3f3d3d"/><path d="M40.848,33.0339C61.5042,30.7931,75.2639,44.69,75.2639,44.69S62.515,59.5188,41.752,58.7357c-10.204-.3848-13.8553-6.5342-13.9745-12.4991C27.654,40.0639,31.3992,34.0588,40.848,33.0339Z" style="fill:#3f3d3d"/></svg>