<?xml version="1.0" ?><svg viewBox="0 0 32 32" xmlns="http://www.w3.org/2000/svg"><defs><style>.cls-1{fill:none;stroke:#000;stroke-linejoin:bevel;stroke-width:2px;}</style></defs><title/><g data-name="Layer 23" id="Layer_23"><path class="cls-1" d="M3,25a7.65,7.65,0,0,1,5-2c3,0,3,2,6,2s4-1,4-1"/><path class="cls-1" d="M6,17a7.65,7.65,0,0,1,5-2c3,0,3,2,6,2s4-1,4-1"/><path class="cls-1" d="M3,9A7.65,7.65,0,0,1,8,7c3,0,3,2,6,2s4-1,4-1"/><ellipse class="cls-1" cx="25" cy="16" rx="4" ry="2"/><ellipse class="cls-1" cx="22" cy="24" rx="4" ry="2"/><ellipse class="cls-1" cx="21" cy="8" rx="4" ry="2"/></g></svg>