<?xml version="1.0" ?><svg data-name="Layer 1" id="Layer_1" viewBox="0 0 64 64" xmlns="http://www.w3.org/2000/svg"><defs><style>.cls-1{fill:#42a047;}.cls-2{fill:#378e43;}.cls-3{fill:#e53a35;}.cls-4{fill:#d32e2e;}.cls-5{fill:#263238;}.cls-6{fill:#317e3d;}</style></defs><path class="cls-1" d="M60,33a19,19,0,0,1-38,0Z"/><path class="cls-2" d="M60,33A19.0044,19.0044,0,0,1,41,52V33Z"/><path class="cls-3" d="M56,33a15,15,0,0,1-30,0Z"/><path class="cls-4" d="M56,33A15.0055,15.0055,0,0,1,41,48V33Z"/><circle class="cls-5" cx="43" cy="37" r="1"/><circle class="cls-5" cx="47" cy="37" r="1"/><circle class="cls-5" cx="49" cy="41" r="1"/><circle class="cls-5" cx="45" cy="41" r="1"/><circle class="cls-5" cx="41" cy="41" r="1"/><circle class="cls-5" cx="37" cy="41" r="1"/><circle class="cls-5" cx="33" cy="41" r="1"/><circle class="cls-5" cx="35" cy="37" r="1"/><circle class="cls-5" cx="31" cy="37" r="1"/><circle class="cls-5" cx="39" cy="37" r="1"/><circle class="cls-5" cx="51" cy="37" r="1"/><path class="cls-2" d="M40,32c0,.34-.03.67-.05,1H35.03a.01.01,0,0,1-.01-.01c-.85-.96-2-1.64-2.63-2.79a3.1824,3.1824,0,0,1-.16-.32,4.0206,4.0206,0,0,1-.31-1.59c0-3.71,4.16-3.71,4.16-7.42a3.6852,3.6852,0,0,0-.04-.58.2485.2485,0,0,0-.01-.08,2.8443,2.8443,0,0,0-.09-.42.0756.0756,0,0,0-.01-.04,2.4011,2.4011,0,0,0-.12-.38.59.59,0,0,0-.04-.08,3.1065,3.1065,0,0,0-.2-.41A21.1962,21.1962,0,0,1,40,32Z"/><path class="cls-6" d="M35.02,32.99a.01.01,0,0,0,.01.01h-8c-1.24-1.39-3.11-2.21-3.11-4.71,0-3.71,4.16-3.71,4.16-7.42,0-3.72-4.16-3.72-4.16-7.44a3.9261,3.9261,0,0,1,.2-1.29,16.9328,16.9328,0,0,1,8.83,3.99,17.9808,17.9808,0,0,0,1.41,1.35s.03.01.03.02a14.6245,14.6245,0,0,1,1.15,1.33.055.055,0,0,1,.03.05c.07.13.14.27.2.41a.59.59,0,0,1,.04.08,2.4011,2.4011,0,0,1,.12.38.0756.0756,0,0,1,.01.04,2.8443,2.8443,0,0,1,.09.42.2485.2485,0,0,1,.01.08,3.6852,3.6852,0,0,1,.04.58c0,3.71-4.16,3.71-4.16,7.42a4.0206,4.0206,0,0,0,.31,1.59,3.1824,3.1824,0,0,0,.16.32C33.02,31.35,34.17,32.03,35.02,32.99Z"/><path class="cls-1" d="M28.08,50.57a2.0083,2.0083,0,0,1-.01.25A16.2043,16.2043,0,0,1,22,52a16.41,16.41,0,0,1-2.12-.14,3.9261,3.9261,0,0,0,.2-1.29c0-3.71-4.16-3.71-4.16-7.42s4.16-3.71,4.16-7.43c0-3.71-4.16-3.71-4.16-7.43,0-3.71,4.16-3.71,4.16-7.42,0-3.72-4.16-3.72-4.16-7.44a2.26,2.26,0,0,1,.01-.26,16.2773,16.2773,0,0,1,8.19-1.03,3.9261,3.9261,0,0,0-.2,1.29c0,3.72,4.16,3.72,4.16,7.44,0,3.71-4.16,3.71-4.16,7.42,0,2.5,1.87,3.32,3.11,4.71H22a18.8642,18.8642,0,0,0,2.15,8.77,4.1084,4.1084,0,0,0-.23,1.38C23.92,46.86,28.08,46.86,28.08,50.57Z"/><path class="cls-2" d="M27.03,33H22V12a16.41,16.41,0,0,1,2.12.14,3.9261,3.9261,0,0,0-.2,1.29c0,3.72,4.16,3.72,4.16,7.44,0,3.71-4.16,3.71-4.16,7.42C23.92,30.79,25.79,31.61,27.03,33Z"/><path class="cls-2" d="M28.08,50.57a2.0083,2.0083,0,0,1-.01.25A16.2043,16.2043,0,0,1,22,52V33a18.8642,18.8642,0,0,0,2.15,8.77,4.1084,4.1084,0,0,0-.23,1.38C23.92,46.86,28.08,46.86,28.08,50.57Z"/><path class="cls-2" d="M15.92,43.15c0,3.71,4.16,3.71,4.16,7.42a3.9261,3.9261,0,0,1-.2,1.29,16.9762,16.9762,0,0,1-8.86-4.01.0781.0781,0,0,1-.04-.04A14.7574,14.7574,0,0,0,9.7,46.59a15.9994,15.9994,0,0,1-1.27-1.46,3.8436,3.8436,0,0,1-.51-1.98c0-3.71,4.16-3.71,4.16-7.43,0-3.71-4.16-3.71-4.16-7.43,0-3.71,4.16-3.71,4.16-7.42,0-1.88-1.06-2.81-2.11-3.74a17.6638,17.6638,0,0,1,5.96-3.96,2.26,2.26,0,0,0-.01.26c0,3.72,4.16,3.72,4.16,7.44,0,3.71-4.16,3.71-4.16,7.42,0,3.72,4.16,3.72,4.16,7.43C20.08,39.44,15.92,39.44,15.92,43.15Z"/><path class="cls-1" d="M12.08,35.72c0,3.72-4.16,3.72-4.16,7.43a3.8436,3.8436,0,0,0,.51,1.98A21.2252,21.2252,0,0,1,4,32,20.9652,20.9652,0,0,1,9.97,17.13c1.05.93,2.11,1.86,2.11,3.74,0,3.71-4.16,3.71-4.16,7.42C7.92,32.01,12.08,32.01,12.08,35.72Z"/><path class="cls-6" d="M28.07,50.82a2.0083,2.0083,0,0,0,.01-.25c0-3.71-4.16-3.71-4.16-7.42a4.1084,4.1084,0,0,1,.23-1.38,19.1369,19.1369,0,0,0,6.98,7.44A17.8682,17.8682,0,0,1,28.07,50.82Z"/><path d="M60,32H41a22.2282,22.2282,0,0,0-4.56-13.6132.8639.8639,0,0,0-.0461-.0748l.0009-.0005a7.1849,7.1849,0,0,0-1.2978-1.519,1.0866,1.0866,0,0,0-.1133-.0972l-.1474-.1332c-.3376-.3431-.68-.6787-1.04-.9945a1.3516,1.3516,0,0,0-.3923-.3244,17.9433,17.9433,0,0,0-8.96-4.0493l0,0-.0012,0a16.8889,16.8889,0,0,0-8.7278,1.012.9757.9757,0,0,0-.2439.0989C3.0576,17.1483-.9685,34.9805,7.55,45.6a7.8671,7.8671,0,0,0,1.75,1.9737c.2768.2759.5534.5509.8445.8088.04.0433.0828.0813.1222.1265a.8646.8646,0,0,0,.2623.1916,17.9563,17.9563,0,0,0,9.0276,4.1052l0,0c.0093.0031.0187.0018.028.0047a16.8925,16.8925,0,0,0,8.7536-1.03.9664.9664,0,0,0,.2113-.09,18.2845,18.2845,0,0,0,2.59-1.3122C44.0808,58.0331,61.2111,48.1071,61,33A.9994.9994,0,0,0,60,32Zm-5.0352,2c-1.7493,17.2359-26.1863,17.2232-27.93,0ZM26.6665,16.4043c-1-.8839-1.819-1.6545-1.7375-3.1019a16.1073,16.1073,0,0,1,7.4986,3.724c.3576.3765.7232.71,1.0937,1.043a18.37,18.37,0,0,1,1.2139,1.387c.8967,1.6485-.0178,3.3549-1.4013,4.3775C30.733,25.7114,29.9015,29.5176,32.527,32H27.4484c-1.1155-1.1458-2.5622-1.9134-2.5285-3.71,0-1.4067.7705-2.0937,1.7456-2.9638A5.3393,5.3393,0,0,0,26.6665,16.4043ZM35.4471,32c-1.1115-1.1475-2.561-1.9168-2.5272-3.71,0-1.4067.77-2.0937,1.7461-2.9638a6.9135,6.9135,0,0,0,2.1-2.7038A20.5987,20.5987,0,0,1,39,32ZM17.3335,17.8955c2.3283,1.7548,2.3317,4.1891.0009,5.938A5.65,5.65,0,0,0,14.92,28.29a5.6627,5.6627,0,0,0,2.416,4.4663c.9746.87,1.7442,1.5577,1.7442,2.9639,0,1.4136-.7715,2.1021-1.7481,2.9746a5.32,5.32,0,0,0,.0025,8.9112c.9992.8831,1.818,1.6485,1.7365,3.0916a16.1168,16.1168,0,0,1-7.5539-3.77c-.3011-.3158-.6082-.5985-.9175-.8738a18.3148,18.3148,0,0,1-1.3418-1.5185C7.4671,40.4378,13.3192,40.08,13.08,35.72a5.6507,5.6507,0,0,0-2.4119-4.4556C9.6914,30.3921,8.92,29.7036,8.92,28.29c0-1.4067.7705-2.0937,1.7456-2.9638,2.6133-1.8809,3.4356-5.72.7789-8.1927a16.7911,16.7911,0,0,1,3.6318-2.4693A6.3515,6.3515,0,0,0,17.3335,17.8955Zm-7.3126.639A3.0556,3.0556,0,0,1,11.08,20.87c0,1.4068-.7705,2.0938-1.7456,2.9639A5.6479,5.6479,0,0,0,6.92,28.29a5.6627,5.6627,0,0,0,2.416,4.4663c.9746.87,1.7442,1.5577,1.7442,2.9639-.0548,2.6958-3.01,3.15-3.8418,5.666C3.4178,34.46,4.6986,24.0678,10.0209,18.5345Zm11.031,32.4119a5.5552,5.5552,0,0,0-2.3864-4.8326c-.9751-.87-1.7456-1.5572-1.7456-2.9639s.77-2.0933,1.7442-2.9634a5.3287,5.3287,0,0,0,.0039-8.9219c-.9766-.8725-1.7481-1.561-1.7481-2.9746,0-1.4067.7705-2.0937,1.7456-2.9633A5.65,5.65,0,0,0,21.08,20.87a5.6663,5.6663,0,0,0-2.4136-4.4658A4.0666,4.0666,0,0,1,16.95,13.8558a14.6259,14.6259,0,0,1,5.9982-.8022,5.5739,5.5739,0,0,0,2.3854,4.8419c2.3241,1.7446,2.3328,4.1942.0009,5.9385-2.5989,1.8717-3.433,5.6862-.81,8.166H22c-1.4589.0907-.9181,1.906-.9051,2.8736a19.8652,19.8652,0,0,0,1.9916,7.03c-.7477,2.3812.88,4.7016,2.2481,5.7025a4.0773,4.0773,0,0,1,1.7139,2.518A14.4368,14.4368,0,0,1,21.0519,50.9464Zm8.2035-1.7828c-.11.0584-.2229.109-.3339.1648a4.6407,4.6407,0,0,0-.1725-.5545C28.9177,48.9038,29.082,49.0382,29.2554,49.1636ZM41,51a17.8715,17.8715,0,0,1-9.3452-2.64l-.001-.0008A18.024,18.024,0,0,1,23.0273,34h2.0234C26.9078,53.8879,55.1,53.873,56.9493,34h2.0234A18.023,18.023,0,0,1,41,51Z"/><path d="M43,38a1,1,0,0,0,0-2A1,1,0,0,0,43,38Z"/><path d="M47,38a1,1,0,0,0,0-2A1,1,0,0,0,47,38Z"/><path d="M49,42a1,1,0,0,0,0-2A1,1,0,0,0,49,42Z"/><path d="M45,42a1,1,0,0,0,0-2A1,1,0,0,0,45,42Z"/><path d="M41,42a1,1,0,0,0,0-2A1,1,0,0,0,41,42Z"/><path d="M37,40a1,1,0,0,0,0,2A1,1,0,0,0,37,40Z"/><path d="M33,40a1,1,0,0,0,0,2A1,1,0,0,0,33,40Z"/><path d="M35,36a1,1,0,0,0,0,2A1,1,0,0,0,35,36Z"/><path d="M31,36a1,1,0,0,0,0,2A1,1,0,0,0,31,36Z"/><path d="M39,36a1,1,0,0,0,0,2A1,1,0,0,0,39,36Z"/><path d="M51,38a1,1,0,0,0,0-2A1,1,0,0,0,51,38Z"/></svg>