<?xml version="1.0" ?><svg xmlns="http://www.w3.org/2000/svg" xmlns:xlink="http://www.w3.org/1999/xlink" version="1.1" id="Fillloutline_expand" viewBox="0 0 495.976 503.973" style="enable-background:new 0 0 495.976 503.973;" xml:space="preserve"><g><g><polygon style="fill:#89A25B;" points="454.164,4.001 435.894,28.951 457.284,44.691 457.294,44.681 475.664,19.581   "/><path style="fill:#D0E6A6;" d="M422.954,22.681c4.4,1.79,8.72,3.88,12.94,6.27c0.97,0.55,1.94,1.12,2.9,1.7    c2.88,1.75,5.65,3.6,8.3,5.55c3.61,2.65,7,5.49,10.19,8.49c7.3,6.84,13.5,14.53,18.56,22.81v0.01    c10.61,17.38,16.16,37.34,16.16,57.5c0,22.57-6.96,45.38-21.56,65.08c-40.72,54.92-85.57,106.81-134.08,155.07    s-100.67,92.88-155.87,133.39c-52.28,38.37-126.42,23.69-160.25-31.48c-29.9-48.76-17.48-112.2,28.72-146.1    c46.25-33.96,89.96-71.35,130.61-111.8c40.65-40.44,78.24-83.92,112.37-129.94C322.454,18.091,376.754,3.871,422.954,22.681z"/><path style="fill:#89A25B;" d="M71.584,419.401c3.29,6.98,2.17,14.41-2.51,16.6c-4.68,2.18-11.14-1.71-14.44-8.69    c-3.29-6.98-2.17-14.41,2.51-16.6C61.824,408.531,68.294,412.421,71.584,419.401z"/><path style="fill:#C1D398;" d="M485.334,87.241c4.4,12.09,6.67,24.89,6.67,37.77c0,22.57-6.96,45.38-21.56,65.08    c-40.72,54.92-85.57,106.81-134.08,155.07s-100.67,92.88-155.87,133.39c-52.28,38.37-126.42,23.69-160.25-31.48    c-11.95-19.49-17.14-41.33-16.11-62.69c2.47,6.77,5.66,13.38,9.56,19.75c33.83,55.17,107.97,69.85,160.25,31.48    c55.2-40.51,107.36-85.13,155.87-133.39s93.36-100.15,134.08-155.07C477.384,128.951,484.344,108.101,485.334,87.241z"/></g><path style="fill:#3A322B;" d="M2.143,367.678c-5.517,28.1-0.301,57.036,14.687,81.481c16.728,27.284,44.396,46.48,75.911,52.667   c7.334,1.439,14.739,2.147,22.113,2.147c24.289,0,48.227-7.682,68.006-22.197c55.269-40.561,107.863-85.571,156.324-133.783   c48.457-48.208,93.7-100.534,134.473-155.523c18.974-25.589,26.339-58.195,20.207-89.458   c-4.388-22.372-15.424-42.794-31.318-58.731l16.349-22.333c0.629-0.859,0.89-1.933,0.724-2.984   c-0.165-1.051-0.742-1.994-1.604-2.618L456.508,0.762c-1.781-1.292-4.273-0.902-5.574,0.876l-16.201,22.129   c-23.191-12.209-49.809-16.174-75.722-11.138c-28.246,5.489-53.205,21.192-70.279,44.215   c-33.951,45.781-71.625,89.35-111.977,129.494c-40.351,40.145-84.144,77.626-130.162,111.404   C23.448,314.73,7.663,339.567,2.143,367.678z M455.037,9.576l15.029,10.89l-13.408,18.315c-2.273-1.98-4.629-3.874-7.063-5.677   c-0.061-0.049-0.109-0.107-0.173-0.153c-0.048-0.034-0.101-0.054-0.15-0.086c-2.44-1.794-4.958-3.496-7.551-5.101L455.037,9.576z    M182.397,192.01c40.634-40.426,78.571-84.299,112.76-130.4c25.117-33.87,66.255-48.841,105.458-41.429   c-3.027,0.743-6.161,1.746-9.351,3.079c-7.472,3.123-14.223,7.601-20.066,13.308c-1.58,1.544-1.61,4.076-0.066,5.657   c0.783,0.802,1.822,1.205,2.861,1.205c1.008,0,2.017-0.378,2.795-1.138c5.118-4.999,11.026-8.918,17.563-11.65   c10.846-4.534,20.968-4.719,27.7-4.029c4.996,2.086,9.902,4.566,14.674,7.461c1.619,0.983,3.207,2.007,4.764,3.069l-24.176,33.672   c-1.289,1.794-0.878,4.294,0.916,5.582c0.706,0.507,1.521,0.751,2.33,0.751c1.244,0,2.471-0.58,3.252-1.667l24.111-33.582   c9.481,7.572,17.567,16.678,23.937,26.869c0.063,7.708-1.394,15.156-4.343,22.139c-2.745,6.5-6.684,12.375-11.706,17.465   c-1.552,1.573-1.534,4.105,0.038,5.657c0.779,0.769,1.795,1.153,2.81,1.153c1.032,0,2.064-0.397,2.848-1.19   c5.736-5.815,10.238-12.534,13.38-19.972c1.702-4.029,2.97-8.191,3.802-12.455c3.286,7.309,5.764,15.014,7.327,22.987   c5.783,29.486-0.887,59.018-18.782,83.153c-40.535,54.669-85.515,106.689-133.689,154.616   c-48.179,47.932-100.468,92.681-155.414,133.006c-23.987,17.604-54.548,24.4-83.846,18.648   c-29.325-5.757-55.07-23.616-70.632-48.998c-29.04-47.365-17.142-107.89,27.677-140.786   C97.666,270.179,141.764,232.435,182.397,192.01z M66.264,440.613c1.546,0,3.065-0.319,4.501-0.988c0,0,0.001,0,0.001-0.001   c2.669-1.246,4.664-3.524,5.771-6.589c1.602-4.436,1.102-10.17-1.337-15.34c-4.297-9.11-12.969-13.774-19.746-10.606   c-2.669,1.246-4.664,3.524-5.771,6.589c-1.602,4.435-1.102,10.169,1.337,15.34C54.407,436.198,60.512,440.613,66.264,440.613z    M57.208,416.395c0.374-1.035,0.923-1.728,1.632-2.058c0.337-0.158,0.719-0.234,1.134-0.234c2.408,0,5.91,2.59,7.992,7.005   c1.527,3.239,1.93,6.768,1.048,9.209c-0.374,1.035-0.923,1.728-1.632,2.059c-2.297,1.066-6.687-1.598-9.125-6.771   C56.728,422.365,56.326,418.836,57.208,416.395z"/></g></svg>