<?xml version="1.0" ?><svg id="Filloutline_Expand" style="enable-background:new 0 0 504 503.997;" version="1.1" viewBox="0 0 504 503.997" xml:space="preserve" xmlns="http://www.w3.org/2000/svg" xmlns:xlink="http://www.w3.org/1999/xlink"><g><path d="M500,42.74c0,26.13-20.81,51.68-28.55,67.74c-3.45,7.17-12.68,22.99-25.55,42.65   c-15.99,24.43-37.6,54.78-60.77,81.81c-23.68,27.62-47.47,46.3-69.5,62.86c-16.87,12.69-32.7,24.13-46.63,37.39   c-32.13,30.58-66.58,49.36-81.29,74.13c-14.71,24.78-24.58,36.39-41.61,50.13C128.29,473.82,110.29,500,72.94,500   C35.58,500,4,499.71,4,477.26c0-15.09,21.86-41.71,39.56-67.06c8.63-12.38,16.28-24.46,19.89-34.75   c7.8-22.18,18.1-75.08,51.99-132.57c14.01-23.77,32.05-48.33,55.62-71.82c6.47-6.44,12.79-12.4,18.96-17.93   c53.77-48.15,96.79-63.77,132.42-82.16c9.54-4.92,18.54-10.04,27.08-16.03C393.65,23.97,387.45,4,419,4   C452.87,4,500,16.61,500,42.74z" style="fill:#DBBB9C;"/><path d="M115.44,242.88c-33.89,57.49-44.19,110.39-51.99,132.57c-3.61,10.29-11.26,22.37-19.89,34.75   C25.86,435.55,4,462.17,4,477.26C4,499.71,35.58,500,72.94,500c37.35,0,55.35-26.18,73.16-40.55   c17.03-13.74,26.9-25.35,41.61-50.13c14.71-24.77,49.16-43.55,81.29-74.13c13.93-13.26,29.76-24.7,46.63-37.39   c22.03-16.56,45.82-35.24,69.5-62.86c23.17-27.03,44.78-57.38,60.77-81.81C342.395,230.708,230.456,247.823,115.44,242.88z" style="fill:#D1AF8F;"/><g><path d="M419,0c-19.936,0-26.604,7.725-36.695,19.418c-7.435,8.612-16.687,19.331-35.086,32.243    c-14.279,10.021-29.644,17.437-47.434,26.022c-35.155,16.968-78.906,38.085-131.545,90.548    c-68.646,68.419-90.883,145.6-102.83,187.063c-2.166,7.517-4.036,14.009-5.732,18.829c-4.865,13.828-17.616,31.474-29.946,48.537    C14.441,443.82,0,463.806,0,477.258c0,26.739,35.428,26.739,72.936,26.739c31.191,0,49.729-17.469,64.625-31.506    c3.843-3.622,7.474-7.043,11.048-9.927c17.859-14.408,27.799-26.371,42.541-51.2c8.628-14.53,24.649-27.146,43.202-41.752    c11.633-9.158,24.816-19.539,37.406-31.521c12.017-11.438,25.598-21.604,39.977-32.367c23.528-17.614,50.196-37.577,76.432-68.185    c42.525-49.614,79.387-109.751,86.889-125.319c1.921-3.985,4.805-8.788,7.858-13.874C492.308,82.7,504,63.229,504,42.742    C504,13.261,454.295,0,419,0z M476.055,94.228c-3.15,5.247-6.127,10.203-8.207,14.52c-7.373,15.301-43.707,74.528-85.756,123.585    c-22.079,25.759-44.623,43.923-65.263,59.554c-9.004-14.989-43.709-67.724-103.009-98.689c-1.959-1.022-4.374-0.265-5.397,1.694    c-1.022,1.958-0.264,4.375,1.694,5.397c57.805,30.185,92.375,83.35,100.266,96.451c-1.154,0.865-2.303,1.726-3.443,2.579    c-14.573,10.91-28.338,21.215-40.697,32.978c-12.317,11.725-24.783,21.539-36.839,31.03    c-19.181,15.102-35.745,28.143-45.133,43.954c-14.179,23.88-23.685,35.342-40.686,49.058c-3.813,3.077-7.553,6.601-11.512,10.331    c-14.587,13.747-31.121,29.328-59.138,29.328C32.532,495.997,8,494.735,8,477.258c0-10.864,14.344-30.715,28.216-49.911    c2.62-3.625,5.254-7.276,7.838-10.918c8.828,8.368,20.47,14.834,31.776,21.111c8.928,4.957,17.36,9.638,23.092,14.644    c0.758,0.662,1.695,0.987,2.629,0.987c1.115,0,2.224-0.463,3.015-1.369c1.453-1.664,1.282-4.19-0.382-5.644    c-6.369-5.563-15.162-10.444-24.471-15.612c-11.252-6.247-22.845-12.694-31.013-20.765c8.025-11.673,15.023-23.05,18.524-33.001    c1.772-5.038,3.673-11.633,5.873-19.27c7.494-26.012,19.112-66.32,43.986-109.484c31.247,14.264,59.32,32.949,83.468,55.603    c0.771,0.725,1.755,1.083,2.735,1.083c1.066,0,2.131-0.424,2.918-1.264c1.512-1.61,1.431-4.143-0.181-5.653    c-24.585-23.065-53.119-42.115-84.851-56.695c13.526-22.325,30.683-45.244,52.714-67.202    c51.684-51.511,92.958-71.433,129.375-89.009c6.615-3.193,13.088-6.319,19.389-9.54c28.311,11.207,54.449,35.422,54.715,35.671    c0.771,0.721,1.751,1.077,2.729,1.077c1.069,0,2.136-0.427,2.924-1.27c1.508-1.614,1.422-4.145-0.191-5.653    c-1.051-0.981-23.947-22.21-51.069-34.634c6.947-3.805,13.649-7.834,20.055-12.33c19.212-13.482,29.23-25.09,36.546-33.565    C397.926,13.563,402.728,8,419,8c32.281,0,77,12.073,77,34.742C496,61.012,484.941,79.429,476.055,94.228z" style="fill:#3A322B;"/><path d="M242.001,129.831c-1.812-1.265-4.304-0.822-5.57,0.988c-1.265,1.812-0.822,4.305,0.988,5.57    c29.028,20.277,56.554,51.576,56.829,51.89c0.79,0.904,1.898,1.366,3.012,1.366c0.935,0,1.873-0.326,2.632-0.99    c1.663-1.454,1.831-3.981,0.377-5.644C299.121,181.701,271.844,150.678,242.001,129.831z" style="fill:#3A322B;"/><path d="M309.797,142.475c-1.963-1.009-4.376-0.238-5.387,1.729c-1.01,1.964-0.236,4.376,1.729,5.387    c37.367,19.217,58.022,45.849,68.77,64.807c0.736,1.299,2.09,2.028,3.483,2.028c0.668,0,1.346-0.168,1.969-0.521    c1.922-1.089,2.597-3.53,1.507-5.452C370.583,190.546,348.92,162.595,309.797,142.475z" style="fill:#3A322B;"/><path d="M222.634,320.653c-1.683,1.432-1.887,3.956-0.455,5.639c4.014,4.718,7.794,9.504,11.237,14.225    c0.782,1.074,2,1.644,3.234,1.644c0.817,0,1.643-0.25,2.354-0.769c1.785-1.301,2.177-3.804,0.875-5.588    c-3.56-4.882-7.465-9.826-11.606-14.695C226.842,319.428,224.317,319.223,222.634,320.653z" style="fill:#3A322B;"/><path d="M136.108,347.962c-11.666-5.989-21.74-11.161-29.854-18.781c-1.611-1.512-4.143-1.431-5.654,0.178    c-1.512,1.61-1.433,4.142,0.178,5.654c8.935,8.391,19.98,14.062,31.676,20.066c15.402,7.907,32.86,16.869,50,34.238    c0.782,0.793,1.814,1.19,2.847,1.19c1.015,0,2.03-0.384,2.81-1.153c1.572-1.551,1.589-4.084,0.037-5.656    C170.108,365.417,152.045,356.144,136.108,347.962z" style="fill:#3A322B;"/><path d="M138.521,372.805c-1.996-0.946-4.381-0.096-5.328,1.9c-0.946,1.996-0.096,4.382,1.9,5.328    c15.387,7.297,27.327,17.436,34.635,24.656c0.779,0.77,1.796,1.154,2.812,1.154c1.031,0,2.063-0.396,2.846-1.188    c1.553-1.571,1.537-4.104-0.034-5.657C167.603,391.343,154.923,380.583,138.521,372.805z" style="fill:#3A322B;"/><path d="M58.46,440.021c-1.698-1.412-4.221-1.181-5.633,0.52l-11.42,13.742    c-1.412,1.699-1.18,4.221,0.52,5.633c0.747,0.621,1.653,0.924,2.555,0.924c1.147,0,2.287-0.491,3.078-1.443l11.42-13.742    C60.392,443.954,60.159,441.433,58.46,440.021z" style="fill:#3A322B;"/><path d="M45.275,474.389c-1.318-1.773-3.823-2.142-5.597-0.825c-1.773,1.317-2.143,3.823-0.825,5.597    l7.549,10.161c0.785,1.057,1.992,1.614,3.214,1.614c0.829,0,1.666-0.257,2.383-0.789c1.773-1.317,2.143-3.823,0.825-5.597    L45.275,474.389z" style="fill:#3A322B;"/><path d="M85.063,455.799c-0.949-1.996-3.34-2.844-5.33-1.895l-17.902,8.516    c-1.995,0.949-2.844,3.336-1.895,5.33c0.686,1.44,2.12,2.283,3.615,2.283c0.576,0,1.161-0.125,1.715-0.389l17.902-8.516    C85.164,460.18,86.013,457.793,85.063,455.799z" style="fill:#3A322B;"/><path d="M84.325,475.416c-1.018-1.963-3.437-2.726-5.393-1.709c-1.961,1.018-2.727,3.432-1.709,5.393    l5.322,10.259c0.712,1.373,2.108,2.159,3.554,2.159c0.621,0,1.251-0.145,1.839-0.45c1.961-1.018,2.727-3.432,1.709-5.393    L84.325,475.416z" style="fill:#3A322B;"/><path d="M108.355,405.194c-1.8-1.281-4.296-0.866-5.58,0.934l-10.354,14.517    c-1.282,1.799-0.864,4.297,0.934,5.58c0.705,0.502,1.516,0.743,2.32,0.743c1.248,0,2.479-0.583,3.26-1.677l10.354-14.517    C110.571,408.976,110.153,406.478,108.355,405.194z" style="fill:#3A322B;"/><path d="M91.353,384.34c-1.558-1.565-4.09-1.572-5.657-0.015l-18.194,18.097    c-1.565,1.558-1.572,4.091-0.015,5.657c0.781,0.785,1.809,1.179,2.836,1.179c1.021,0,2.04-0.388,2.821-1.164l18.194-18.097    C92.903,388.439,92.91,385.906,91.353,384.34z" style="fill:#3A322B;"/><path d="M141.116,423.173L123.6,438.754c-1.651,1.468-1.799,3.996-0.33,5.646    c0.79,0.889,1.887,1.342,2.989,1.342c0.946,0,1.896-0.333,2.657-1.012l17.517-15.581c1.651-1.468,1.799-3.996,0.33-5.646    C145.295,421.852,142.766,421.704,141.116,423.173z" style="fill:#3A322B;"/><path d="M204.804,344.97l-9.774,14.613c-1.228,1.836-0.735,4.32,1.102,5.549    c0.683,0.456,1.455,0.675,2.22,0.675c1.291,0,2.558-0.623,3.329-1.776l9.774-14.613c1.228-1.836,0.735-4.32-1.102-5.549    C208.517,342.641,206.032,343.133,204.804,344.97z" style="fill:#3A322B;"/><path d="M158.659,343.979c0.727,0.559,1.584,0.828,2.435,0.828c1.2,0,2.387-0.538,3.175-1.563    l15.097-19.646c1.346-1.752,1.018-4.263-0.734-5.609c-1.751-1.347-4.263-1.017-5.609,0.734l-15.097,19.646    C156.579,340.121,156.907,342.632,158.659,343.979z" style="fill:#3A322B;"/><path d="M133.716,323.1c0.66,0.414,1.394,0.611,2.119,0.611c1.332,0,2.635-0.666,3.394-1.878l10.548-16.839    c1.173-1.872,0.605-4.34-1.267-5.513c-1.872-1.174-4.341-0.605-5.513,1.267l-10.548,16.839    C131.276,319.459,131.844,321.927,133.716,323.1z" style="fill:#3A322B;"/><path d="M105.781,302.819c0.734,0.578,1.607,0.858,2.474,0.858c1.184,0,2.355-0.522,3.145-1.523    l12.968-16.452c1.367-1.735,1.069-4.251-0.665-5.618c-1.737-1.368-4.251-1.067-5.618,0.665l-12.968,16.452    C103.749,298.937,104.047,301.452,105.781,302.819z" style="fill:#3A322B;"/><path d="M170.315,210.868l-16.064,16.645c-1.534,1.589-1.489,4.121,0.1,5.655    c0.776,0.749,1.778,1.122,2.778,1.122c1.047,0,2.094-0.409,2.878-1.223l16.064-16.645c1.534-1.589,1.489-4.121-0.1-5.655    C174.384,209.235,171.849,209.278,170.315,210.868z" style="fill:#3A322B;"/><path d="M197.13,232.828l-15.484,14.903c-1.592,1.532-1.641,4.064-0.108,5.655    c0.785,0.816,1.833,1.227,2.882,1.227c0.998,0,1.998-0.371,2.773-1.118l15.484-14.903c1.592-1.532,1.641-4.064,0.108-5.655    C201.254,231.344,198.721,231.297,197.13,232.828z" style="fill:#3A322B;"/><path d="M223.565,279.413c0.538,0.246,1.103,0.362,1.657,0.362c1.519,0,2.971-0.869,3.642-2.341    l8.742-19.161c0.917-2.01,0.031-4.382-1.979-5.299c-2.011-0.92-4.384-0.031-5.299,1.979l-8.742,19.161    C220.67,276.124,221.556,278.496,223.565,279.413z" style="fill:#3A322B;"/><path d="M249.257,302.613c1.062,0,2.121-0.42,2.908-1.253l14.542-15.388    c1.518-1.605,1.445-4.137-0.16-5.654c-1.604-1.517-4.137-1.445-5.654,0.16l-14.542,15.388c-1.518,1.605-1.445,4.137,0.16,5.654    C247.283,302.251,248.271,302.613,249.257,302.613z" style="fill:#3A322B;"/><path d="M334.985,232.612l-19.936,16.289c-1.71,1.398-1.964,3.918-0.566,5.629    c0.791,0.968,1.94,1.469,3.1,1.469c0.891,0,1.786-0.296,2.529-0.902l19.936-16.289c1.71-1.398,1.964-3.918,0.566-5.629    C339.216,231.468,336.697,231.218,334.985,232.612z" style="fill:#3A322B;"/><path d="M297.376,200.412c-1.75-1.35-4.262-1.022-5.609,0.729l-12.968,16.838    c-1.348,1.75-1.022,4.262,0.729,5.609c0.727,0.561,1.586,0.831,2.438,0.831c1.198,0,2.384-0.536,3.172-1.56l12.968-16.838    C299.452,204.271,299.127,201.76,297.376,200.412z" style="fill:#3A322B;"/><path d="M258.881,179.786l-14.71,14.064c-1.597,1.527-1.653,4.06-0.127,5.656    c0.786,0.821,1.838,1.235,2.893,1.235c0.993,0,1.988-0.368,2.764-1.108l14.71-14.064c1.597-1.527,1.653-4.06,0.127-5.656    C263.011,178.318,260.479,178.26,258.881,179.786z" style="fill:#3A322B;"/><path d="M228.067,153.941l-12,9.097c-1.761,1.334-2.106,3.844-0.771,5.604    c0.787,1.038,1.981,1.584,3.19,1.584c0.842,0,1.69-0.265,2.413-0.813l12-9.097c1.761-1.334,2.106-3.844,0.771-5.604    C232.336,152.952,229.827,152.606,228.067,153.941z" style="fill:#3A322B;"/><path d="M309.455,119.71c0.762,0,1.533-0.217,2.215-0.672l19.162-12.774    c1.838-1.226,2.335-3.709,1.109-5.547c-1.225-1.838-3.709-2.338-5.547-1.109l-19.162,12.774c-1.838,1.226-2.335,3.709-1.109,5.547    C306.894,119.085,308.162,119.71,309.455,119.71z" style="fill:#3A322B;"/><path d="M338.208,146.783c0.681,0.451,1.448,0.667,2.208,0.667c1.296,0,2.566-0.628,3.337-1.788    l9.677-14.579c1.222-1.841,0.72-4.323-1.121-5.545c-1.842-1.221-4.322-0.719-5.545,1.121l-9.677,14.579    C335.865,143.079,336.367,145.562,338.208,146.783z" style="fill:#3A322B;"/><path d="M382.172,142.612c-1.888-1.146-4.349-0.545-5.495,1.345l-10.258,16.903    c-1.146,1.889-0.544,4.349,1.345,5.495c0.648,0.394,1.364,0.581,2.071,0.581c1.352,0,2.671-0.686,3.424-1.926l10.258-16.903    C384.662,146.219,384.061,143.759,382.172,142.612z" style="fill:#3A322B;"/><path d="M407.33,165.833c-1.817-1.252-4.31-0.79-5.562,1.029l-10.646,15.484    c-1.252,1.821-0.791,4.312,1.03,5.563c0.691,0.477,1.48,0.704,2.262,0.704c1.273,0,2.524-0.605,3.3-1.733l10.646-15.484    C409.612,169.574,409.151,167.084,407.33,165.833z" style="fill:#3A322B;"/><path d="M440.899,73.57c-1.785-1.297-4.288-0.901-5.587,0.886l-11.807,16.258    c-1.299,1.788-0.901,4.289,0.886,5.587c0.71,0.516,1.532,0.764,2.348,0.764c1.236,0,2.457-0.572,3.239-1.649l11.807-16.258    C443.084,77.369,442.687,74.868,440.899,73.57z" style="fill:#3A322B;"/><path d="M467.493,73.259c-1.954-1.02-4.374-0.26-5.396,1.7l-9.678,18.58    c-1.021,1.959-0.259,4.375,1.7,5.396c0.59,0.308,1.222,0.453,1.845,0.453c1.443,0,2.838-0.784,3.551-2.153l9.678-18.58    C470.214,76.695,469.452,74.279,467.493,73.259z" style="fill:#3A322B;"/><path d="M426.744,65.322c0.942,0,1.888-0.331,2.649-1.005L441.2,53.866    c1.654-1.464,1.808-3.992,0.344-5.646c-1.464-1.653-3.991-1.809-5.646-0.344l-11.807,10.451c-1.654,1.464-1.808,3.992-0.344,5.646    C424.537,64.866,425.638,65.322,426.744,65.322z" style="fill:#3A322B;"/><path d="M407.385,41.54l-13.741,14.517c-1.519,1.604-1.449,4.137,0.155,5.655    c0.773,0.731,1.763,1.095,2.749,1.095c1.061,0,2.119-0.419,2.906-1.25l13.741-14.517c1.519-1.604,1.449-4.137-0.155-5.655    C411.436,39.867,408.903,39.937,407.385,41.54z" style="fill:#3A322B;"/></g></g></svg>