<svg viewBox="0 0 512 512" xml:space="preserve" xmlns="http://www.w3.org/2000/svg" enable-background="new 0 0 512 512"><path d="M368.79 210.129c-86.483 40.513-28.951 154.672 51.271 123.541 83.117-32.266 30.89-162.024-51.271-123.541M95.301 416.697c41.123 41.117 97.939 66.557 160.694 66.557s119.571-25.439 160.699-66.557c41.117-41.127 66.557-97.943 66.557-160.699 0-62.754-25.439-119.568-66.557-160.694-38.707-38.701-91.292-63.833-149.686-66.293-11.59-.489-10.572 11.638-1.56 22.029 13.391 15.445 21.732 31.517 10.617 48.55-14.156 17.699-33.317 20.925-55.799 10.444-16.796-9.309-35.207-20.083-46.691-23.639-14.923-4.627-28.945 11.833-9.32 29.876 14.771 13.575 48.632 24.355 57.605 40.385 21 37.485-15.118 98.868-34.027 112.258 3.97 4.814 52.416 13.016 53.915 5.691-5.223-9.695-3.5-28.291 9.996-60.199 11.238-26.563 25.094-40.105 43.259-33.905 33.368 18.63 10.366 45.803.839 83.084-6.71 25.064 32.244 38.098 37.823 58.354 25.753 93.551-168.896 105.371-221.608 25.514-10.075-15.27-19.122-42.332-14.297-71.359 8.314-50.016 30.164-57.936-12.81-69.884-12.4-3.447-24.08-8.255-19.602-28.682 6.765-30.827 46.568-17.595 76.017-10.293 36.678 9.094 44.527 28.587 42.771 53.924-.782 11.336-6.524 26.454-10.276 40.129 18.909-13.731 43.063-55.418 36.063-88.63-2.874-18.769-36.61-23.069-56.291-41.349-34.162-31.696-5.96-91.725 57.074-48.257 9.706 6.695 18.758 11.07 26.603 13.416 27.262 8.152 35.486-12.706 15.297-37.063-12.58-14.705-17.394-21.66-19.636-29.504-53.563 5.39-101.641 29.378-137.67 65.404-41.123 41.125-66.557 97.939-66.557 160.694.001 62.755 25.435 119.571 66.558 160.698zM255.995.001C397.383.001 512 114.616 512 255.998c0 141.389-114.617 256-256.005 256C114.612 511.998 0 397.387 0 255.998 0 114.616 114.612.001 255.995.001z" fill="#9f5ae5" class="fill-319997"></path><path d="M368.792 210.13c-86.483 40.513-28.951 154.672 51.271 123.542 83.117-32.267 30.89-162.025-51.271-123.542M95.303 416.699c41.123 41.117 97.939 66.557 160.694 66.557s119.571-25.439 160.699-66.557c41.117-41.128 66.557-97.944 66.557-160.699s-25.439-119.569-66.557-160.694c-38.707-38.701-91.292-63.833-149.685-66.293-11.591-.489-10.573 11.638-1.561 22.029 13.391 15.445 21.732 31.517 10.617 48.55-14.156 17.699-33.317 20.925-55.799 10.444-16.796-9.309-35.207-20.083-46.691-23.639-14.922-4.627-28.945 11.833-9.32 29.876 14.771 13.575 48.632 24.355 57.605 40.385 21 37.485-15.118 98.867-34.027 112.258 3.97 4.814 52.416 13.017 53.915 5.692-5.223-9.695-3.5-28.292 9.997-60.2 11.239-26.563 25.093-40.105 43.258-33.905 33.368 18.63 10.366 45.803.839 83.084-6.71 25.065 32.244 38.098 37.823 58.354 25.753 93.551-168.896 105.37-221.608 25.513-10.075-15.27-19.122-42.331-14.297-71.359 8.314-50.016 30.164-57.936-12.809-69.884-12.401-3.447-24.081-8.255-19.602-28.682 6.765-30.827 46.568-17.595 76.017-10.293 36.678 9.094 44.527 28.587 42.771 53.924-.782 11.336-6.524 26.454-10.276 40.13 18.909-13.732 43.063-55.419 36.063-88.63-2.874-18.769-36.61-23.069-56.291-41.349-34.162-31.696-5.96-91.725 57.074-48.257 9.706 6.695 18.758 11.07 26.603 13.416 27.262 8.152 35.486-12.706 15.297-37.063-12.58-14.705-17.394-21.66-19.636-29.504-53.563 5.39-101.641 29.378-137.67 65.404C54.18 136.431 28.746 193.245 28.746 256S54.18 375.571 95.303 416.699zM255.997 6.491c137.804 0 249.515 111.708 249.515 249.509 0 137.804-111.711 249.509-249.515 249.509C118.198 505.509 6.488 393.804 6.488 256c0-137.801 111.71-249.509 249.509-249.509z" fill="#9f5ae5" class="fill-319997"></path></svg>